<svg xmlns="http://www.w3.org/2000/svg" xmlns:xlink="http://www.w3.org/1999/xlink" width="500" zoomAndPan="magnify" viewBox="0 0 375 374.999991" height="500" preserveAspectRatio="xMidYMid meet" version="1.0"><path fill="#f7931a" d="M 352.367188 228.617188 C 329.664062 319.675781 237.441406 375.089844 146.371094 352.382812 C 55.339844 329.679688 -0.0742188 237.449219 22.636719 146.398438 C 45.328125 55.332031 137.554688 -0.0898438 228.597656 22.613281 C 319.660156 45.3125 375.070312 137.554688 352.367188 228.617188 Z M 352.367188 228.617188 " fill-opacity="1" fill-rule="nonzero"/><path fill="#ffffff" d="M 262.441406 163.285156 C 265.824219 140.667969 248.605469 128.507812 225.058594 120.398438 L 232.695312 89.761719 L 214.046875 85.113281 L 206.609375 114.941406 C 201.707031 113.722656 196.671875 112.570312 191.667969 111.425781 L 199.160156 81.402344 L 180.519531 76.753906 L 172.878906 107.378906 C 168.820312 106.457031 164.835938 105.542969 160.96875 104.582031 L 160.988281 104.484375 L 135.269531 98.0625 L 130.308594 117.980469 C 130.308594 117.980469 144.148438 121.152344 143.855469 121.347656 C 151.40625 123.234375 152.773438 128.234375 152.542969 132.195312 L 143.84375 167.097656 C 144.363281 167.230469 145.039062 167.421875 145.78125 167.71875 C 145.160156 167.566406 144.496094 167.394531 143.8125 167.230469 L 131.617188 216.125 C 130.691406 218.417969 128.351562 221.859375 123.070312 220.554688 C 123.257812 220.824219 109.515625 217.171875 109.515625 217.171875 L 100.257812 238.519531 L 124.527344 244.566406 C 129.039062 245.699219 133.464844 246.882812 137.820312 248 L 130.101562 278.988281 L 148.730469 283.636719 L 156.375 252.976562 C 161.460938 254.355469 166.402344 255.632812 171.234375 256.832031 L 163.617188 287.347656 L 182.269531 291.996094 L 189.984375 261.066406 C 221.785156 267.082031 245.699219 264.65625 255.765625 235.894531 C 263.875 212.734375 255.359375 199.375 238.628906 190.664062 C 250.8125 187.855469 259.992188 179.839844 262.441406 163.285156 Z M 219.832031 223.035156 C 214.070312 246.191406 175.074219 233.675781 162.433594 230.535156 L 172.675781 189.480469 C 185.316406 192.636719 225.855469 198.882812 219.832031 223.035156 Z M 225.601562 162.949219 C 220.339844 184.015625 187.886719 173.3125 177.359375 170.6875 L 186.644531 133.453125 C 197.171875 136.078125 231.078125 140.976562 225.601562 162.949219 Z M 225.601562 162.949219 " fill-opacity="1" fill-rule="nonzero"/></svg>