<svg xmlns="http://www.w3.org/2000/svg" xmlns:xlink="http://www.w3.org/1999/xlink" width="1920" zoomAndPan="magnify" viewBox="0 0 1440 809.999993" height="1080" preserveAspectRatio="xMidYMid meet" version="1.0"><defs><g/></defs><g fill="#ffffff" fill-opacity="1"><g transform="translate(362.339285, 597.447555)"><g><path d="M 222.484375 -301.515625 L 222.484375 -273.734375 C 222.484375 -269.347656 221.910156 -266.148438 220.765625 -264.140625 C 219.617188 -262.140625 217.140625 -261.140625 213.328125 -261.140625 L 160.0625 -261.140625 C 156.625 -261.140625 154.285156 -262.046875 153.046875 -263.859375 C 151.804688 -265.671875 151.1875 -268.582031 151.1875 -272.59375 L 151.1875 -299.21875 C 151.1875 -304.945312 150.039062 -310.4375 147.75 -315.6875 C 145.457031 -320.9375 142.113281 -325.226562 137.71875 -328.5625 C 133.332031 -331.90625 127.988281 -333.578125 121.6875 -333.578125 C 112.332031 -333.578125 104.789062 -330.1875 99.0625 -323.40625 C 93.34375 -316.632812 90.484375 -308.765625 90.484375 -299.796875 L 90.484375 -97.359375 C 90.484375 -91.441406 91.722656 -85.804688 94.203125 -80.453125 C 96.679688 -75.109375 100.257812 -70.8125 104.9375 -67.5625 C 109.613281 -64.320312 115.195312 -62.703125 121.6875 -62.703125 C 132.1875 -62.703125 139.96875 -66.234375 145.03125 -73.296875 C 150.09375 -80.359375 152.625 -88.378906 152.625 -97.359375 L 152.625 -131.421875 C 152.625 -135.816406 153.242188 -138.773438 154.484375 -140.296875 C 155.722656 -141.828125 157.960938 -142.59375 161.203125 -142.59375 L 214.75 -142.59375 C 218 -142.59375 220.382812 -141.925781 221.90625 -140.59375 C 223.4375 -139.257812 224.203125 -136.394531 224.203125 -132 L 224.203125 -93.0625 C 224.203125 -72.445312 219.570312 -54.691406 210.3125 -39.796875 C 201.050781 -24.910156 188.640625 -13.503906 173.078125 -5.578125 C 157.523438 2.335938 140.207031 6.296875 121.125 6.296875 C 106.800781 6.296875 93.195312 4.054688 80.3125 -0.421875 C 67.425781 -4.910156 56.019531 -11.445312 46.09375 -20.03125 C 36.164062 -28.625 28.382812 -39.078125 22.75 -51.390625 C 17.125 -63.703125 14.3125 -77.59375 14.3125 -93.0625 L 14.3125 -302.953125 C 14.3125 -317.078125 16.9375 -330.195312 22.1875 -342.3125 C 27.4375 -354.4375 34.832031 -364.984375 44.375 -373.953125 C 53.925781 -382.929688 65.191406 -389.898438 78.171875 -394.859375 C 91.148438 -399.828125 105.46875 -402.3125 121.125 -402.3125 C 138.488281 -402.3125 153.566406 -399.445312 166.359375 -393.71875 C 179.148438 -387.988281 189.695312 -380.347656 198 -370.796875 C 206.300781 -361.253906 212.457031 -350.46875 216.46875 -338.4375 C 220.476562 -326.414062 222.484375 -314.109375 222.484375 -301.515625 Z M 222.484375 -301.515625 "/></g></g></g><g fill="#ffffff" fill-opacity="1"><g transform="translate(627.91975, 597.447555)"><g><path d="M 132.578125 -170.65625 C 153.003906 -159.96875 169.609375 -147.082031 182.390625 -132 C 195.179688 -116.914062 201.578125 -99.738281 201.578125 -80.46875 C 201.578125 -63.851562 197.566406 -49.054688 189.546875 -36.078125 C 181.535156 -23.097656 170.367188 -12.929688 156.046875 -5.578125 C 141.734375 1.765625 124.9375 5.4375 105.65625 5.4375 C 86 5.4375 69.773438 3.050781 56.984375 -1.71875 C 44.191406 -6.488281 34.265625 -13.023438 27.203125 -21.328125 C 20.140625 -29.628906 15.175781 -38.984375 12.3125 -49.390625 C 9.445312 -59.796875 8.015625 -70.535156 8.015625 -81.609375 L 8.015625 -85.609375 C 8.015625 -91.148438 12.691406 -93.921875 22.046875 -93.921875 L 69 -93.921875 C 73.96875 -93.921875 76.453125 -90.960938 76.453125 -85.046875 L 76.453125 -79.609375 C 76.453125 -72.535156 79.078125 -66.945312 84.328125 -62.84375 C 89.578125 -58.738281 95.734375 -56.6875 102.796875 -56.6875 C 109.859375 -56.6875 116.015625 -58.832031 121.265625 -63.125 C 126.515625 -67.425781 129.140625 -73.300781 129.140625 -80.75 C 129.140625 -85.90625 127.132812 -90.535156 123.125 -94.640625 C 119.113281 -98.742188 113.863281 -102.703125 107.375 -106.515625 C 100.882812 -110.335938 93.773438 -114.300781 86.046875 -118.40625 C 78.316406 -122.507812 70.726562 -126.945312 63.28125 -131.71875 C 53.164062 -137.820312 44.144531 -144.738281 36.21875 -152.46875 C 28.300781 -160.207031 22.097656 -169.085938 17.609375 -179.109375 C 13.117188 -189.128906 10.875 -200.535156 10.875 -213.328125 C 10.875 -229.546875 14.882812 -244.050781 22.90625 -256.84375 C 30.925781 -269.632812 41.953125 -279.800781 55.984375 -287.34375 C 70.015625 -294.882812 86 -298.65625 103.9375 -298.65625 C 124.175781 -298.65625 141.164062 -294.976562 154.90625 -287.625 C 168.65625 -280.28125 179.0625 -270.113281 186.125 -257.125 C 193.1875 -244.144531 196.71875 -229.066406 196.71875 -211.890625 L 196.71875 -207.015625 C 196.71875 -203.960938 195.90625 -202.101562 194.28125 -201.4375 C 192.65625 -200.769531 189.835938 -200.4375 185.828125 -200.4375 L 140.59375 -200.4375 C 137.34375 -200.4375 135.050781 -201.195312 133.71875 -202.71875 C 132.382812 -204.25 131.71875 -206.351562 131.71875 -209.03125 L 131.71875 -213.03125 C 131.71875 -220.09375 129.378906 -225.816406 124.703125 -230.203125 C 120.023438 -234.597656 114.15625 -236.796875 107.09375 -236.796875 C 99.644531 -236.796875 93.722656 -234.363281 89.328125 -229.5 C 84.941406 -224.632812 82.75 -218.765625 82.75 -211.890625 C 82.75 -205.972656 84.367188 -201.203125 87.609375 -197.578125 C 90.859375 -193.953125 96.109375 -190.226562 103.359375 -186.40625 C 110.617188 -182.59375 120.359375 -177.34375 132.578125 -170.65625 Z M 132.578125 -170.65625 "/></g></g></g><g fill="#ffffff" fill-opacity="1"><g transform="translate(868.015915, 597.447555)"><g><path d="M 132.578125 -170.65625 C 153.003906 -159.96875 169.609375 -147.082031 182.390625 -132 C 195.179688 -116.914062 201.578125 -99.738281 201.578125 -80.46875 C 201.578125 -63.851562 197.566406 -49.054688 189.546875 -36.078125 C 181.535156 -23.097656 170.367188 -12.929688 156.046875 -5.578125 C 141.734375 1.765625 124.9375 5.4375 105.65625 5.4375 C 86 5.4375 69.773438 3.050781 56.984375 -1.71875 C 44.191406 -6.488281 34.265625 -13.023438 27.203125 -21.328125 C 20.140625 -29.628906 15.175781 -38.984375 12.3125 -49.390625 C 9.445312 -59.796875 8.015625 -70.535156 8.015625 -81.609375 L 8.015625 -85.609375 C 8.015625 -91.148438 12.691406 -93.921875 22.046875 -93.921875 L 69 -93.921875 C 73.96875 -93.921875 76.453125 -90.960938 76.453125 -85.046875 L 76.453125 -79.609375 C 76.453125 -72.535156 79.078125 -66.945312 84.328125 -62.84375 C 89.578125 -58.738281 95.734375 -56.6875 102.796875 -56.6875 C 109.859375 -56.6875 116.015625 -58.832031 121.265625 -63.125 C 126.515625 -67.425781 129.140625 -73.300781 129.140625 -80.75 C 129.140625 -85.90625 127.132812 -90.535156 123.125 -94.640625 C 119.113281 -98.742188 113.863281 -102.703125 107.375 -106.515625 C 100.882812 -110.335938 93.773438 -114.300781 86.046875 -118.40625 C 78.316406 -122.507812 70.726562 -126.945312 63.28125 -131.71875 C 53.164062 -137.820312 44.144531 -144.738281 36.21875 -152.46875 C 28.300781 -160.207031 22.097656 -169.085938 17.609375 -179.109375 C 13.117188 -189.128906 10.875 -200.535156 10.875 -213.328125 C 10.875 -229.546875 14.882812 -244.050781 22.90625 -256.84375 C 30.925781 -269.632812 41.953125 -279.800781 55.984375 -287.34375 C 70.015625 -294.882812 86 -298.65625 103.9375 -298.65625 C 124.175781 -298.65625 141.164062 -294.976562 154.90625 -287.625 C 168.65625 -280.28125 179.0625 -270.113281 186.125 -257.125 C 193.1875 -244.144531 196.71875 -229.066406 196.71875 -211.890625 L 196.71875 -207.015625 C 196.71875 -203.960938 195.90625 -202.101562 194.28125 -201.4375 C 192.65625 -200.769531 189.835938 -200.4375 185.828125 -200.4375 L 140.59375 -200.4375 C 137.34375 -200.4375 135.050781 -201.195312 133.71875 -202.71875 C 132.382812 -204.25 131.71875 -206.351562 131.71875 -209.03125 L 131.71875 -213.03125 C 131.71875 -220.09375 129.378906 -225.816406 124.703125 -230.203125 C 120.023438 -234.597656 114.15625 -236.796875 107.09375 -236.796875 C 99.644531 -236.796875 93.722656 -234.363281 89.328125 -229.5 C 84.941406 -224.632812 82.75 -218.765625 82.75 -211.890625 C 82.75 -205.972656 84.367188 -201.203125 87.609375 -197.578125 C 90.859375 -193.953125 96.109375 -190.226562 103.359375 -186.40625 C 110.617188 -182.59375 120.359375 -177.34375 132.578125 -170.65625 Z M 132.578125 -170.65625 "/></g></g></g></svg>