<svg xmlns="http://www.w3.org/2000/svg" xmlns:xlink="http://www.w3.org/1999/xlink" width="1920" zoomAndPan="magnify" viewBox="0 0 1440 809.999993" height="1080" preserveAspectRatio="xMidYMid meet" version="1.0"><defs><g/></defs><g fill="#ffffff" fill-opacity="1"><g transform="translate(300.02469, 568.603529)"><g><path d="M 144.109375 -336.890625 L 192.546875 -336.890625 C 194.660156 -336.890625 196.523438 -336.238281 198.140625 -334.9375 C 199.765625 -333.644531 200.578125 -331.210938 200.578125 -327.640625 L 200.578125 -9.25 C 200.578125 -3.082031 197.65625 0 191.8125 0 L 144.109375 0 C 138.585938 0 135.828125 -3.082031 135.828125 -9.25 L 135.828125 -143.140625 L 82.28125 -143.140625 L 82.28125 -9.25 C 82.28125 -3.082031 79.601562 0 74.25 0 L 25.5625 0 C 20.207031 0 17.53125 -3.082031 17.53125 -9.25 L 17.53125 -327.40625 C 17.53125 -333.726562 20.207031 -336.890625 25.5625 -336.890625 L 74.25 -336.890625 C 79.601562 -336.890625 82.28125 -333.726562 82.28125 -327.40625 L 82.28125 -201.796875 L 135.828125 -201.796875 L 135.828125 -327.40625 C 135.828125 -330 136.515625 -332.226562 137.890625 -334.09375 C 139.273438 -335.957031 141.347656 -336.890625 144.109375 -336.890625 Z M 144.109375 -336.890625 "/></g></g></g><g fill="#ffffff" fill-opacity="1"><g transform="translate(544.300243, 568.603529)"><g><path d="M 106.375 0 L 91.046875 0 C 81.628906 0 72.820312 -1.132812 64.625 -3.40625 C 56.4375 -5.675781 49.253906 -9.53125 43.078125 -14.96875 C 36.910156 -20.40625 32.082031 -27.828125 28.59375 -37.234375 C 25.113281 -46.648438 23.375 -58.5 23.375 -72.78125 L 23.375 -194.984375 L 9 -194.984375 C 7.707031 -194.984375 6.164062 -195.753906 4.375 -197.296875 C 2.59375 -198.835938 1.703125 -201.066406 1.703125 -203.984375 L 1.703125 -240.015625 C 1.703125 -243.265625 2.550781 -245.660156 4.25 -247.203125 C 5.957031 -248.742188 7.539062 -249.515625 9 -249.515625 L 23.375 -249.515625 L 23.375 -286.75 C 23.375 -289.507812 23.859375 -291.660156 24.828125 -293.203125 C 25.804688 -294.742188 27.59375 -295.835938 30.1875 -296.484375 L 75.703125 -309.875 C 76.191406 -310.039062 76.921875 -310.125 77.890625 -310.125 C 82.765625 -310.125 85.203125 -307.445312 85.203125 -302.09375 L 85.203125 -249.515625 L 109.78125 -249.515625 C 114.320312 -249.515625 116.59375 -246.507812 116.59375 -240.5 L 116.59375 -203.984375 C 116.59375 -201.390625 115.90625 -199.238281 114.53125 -197.53125 C 113.15625 -195.832031 111.328125 -194.984375 109.046875 -194.984375 L 85.203125 -194.984375 L 85.203125 -76.4375 C 85.203125 -69.625 86.820312 -64.390625 90.0625 -60.734375 C 93.3125 -57.078125 99.398438 -55.25 108.328125 -55.25 L 112.46875 -55.25 C 116.03125 -55.25 118.132812 -54.191406 118.78125 -52.078125 C 119.4375 -49.972656 119.765625 -48.03125 119.765625 -46.25 L 119.765625 -7.796875 C 119.765625 -6.171875 119.15625 -4.460938 117.9375 -2.671875 C 116.71875 -0.890625 112.863281 0 106.375 0 Z M 106.375 0 "/></g></g></g><g fill="#ffffff" fill-opacity="1"><g transform="translate(698.022133, 568.603529)"><g><path d="M 221.765625 -8.515625 L 221.765625 -174.53125 C 221.597656 -183.457031 219.523438 -189.742188 215.546875 -193.390625 C 211.578125 -197.046875 207.15625 -199.035156 202.28125 -199.359375 L 199.125 -199.359375 C 193.925781 -199.203125 189.421875 -197.253906 185.609375 -193.515625 C 181.796875 -189.785156 179.890625 -183.132812 179.890625 -173.5625 L 179.890625 -8.515625 C 179.890625 -6.085938 179.238281 -4.0625 177.9375 -2.4375 C 176.644531 -0.8125 174.863281 0 172.59375 0 L 125.359375 0 C 120.492188 0 118.0625 -2.835938 118.0625 -8.515625 L 118.0625 -172.828125 C 117.894531 -179.804688 116.632812 -185.203125 114.28125 -189.015625 C 111.925781 -192.828125 109.125 -195.503906 105.875 -197.046875 C 102.632812 -198.585938 99.472656 -199.359375 96.390625 -199.359375 L 94.6875 -199.359375 C 89.65625 -199.035156 85.3125 -196.925781 81.65625 -193.03125 C 78.007812 -189.132812 76.1875 -181.914062 76.1875 -171.375 L 76.1875 -8.28125 C 76.1875 -6.164062 75.535156 -4.253906 74.234375 -2.546875 C 72.941406 -0.847656 71.160156 0 68.890625 0 L 21.671875 0 C 16.960938 0 14.609375 -2.757812 14.609375 -8.28125 L 14.609375 -172.828125 C 15.085938 -189.222656 17.800781 -202.691406 22.75 -213.234375 C 27.707031 -223.785156 34.160156 -232.019531 42.109375 -237.9375 C 50.066406 -243.863281 58.75 -248.003906 68.15625 -250.359375 C 77.570312 -252.710938 86.90625 -253.890625 96.15625 -253.890625 L 97.859375 -253.890625 C 108.734375 -253.890625 118.59375 -251.859375 127.4375 -247.796875 C 136.28125 -243.742188 143.703125 -237.253906 149.703125 -228.328125 C 155.546875 -237.085938 162.847656 -243.535156 171.609375 -247.671875 C 180.378906 -251.816406 190.035156 -253.890625 200.578125 -253.890625 L 202.53125 -253.890625 C 228.65625 -253.890625 248.695312 -246.664062 262.65625 -232.21875 C 276.613281 -217.78125 283.59375 -197.414062 283.59375 -171.125 L 283.59375 -8.515625 C 283.59375 -6.085938 282.941406 -4.0625 281.640625 -2.4375 C 280.335938 -0.8125 278.550781 0 276.28125 0 L 229.0625 0 C 224.195312 0 221.765625 -2.835938 221.765625 -8.515625 Z M 221.765625 -8.515625 "/></g></g></g><g fill="#ffffff" fill-opacity="1"><g transform="translate(1021.897276, 568.603529)"><g><path d="M 111.25 -46.25 L 111.25 -7.796875 C 111.25 -6.171875 110.597656 -4.460938 109.296875 -2.671875 C 107.992188 -0.890625 104.097656 0 97.609375 0 L 82.28125 0 C 73.03125 0 64.304688 -1.132812 56.109375 -3.40625 C 47.910156 -5.675781 40.6875 -9.53125 34.4375 -14.96875 C 28.195312 -20.40625 23.332031 -27.828125 19.84375 -37.234375 C 16.351562 -46.648438 14.609375 -58.5 14.609375 -72.78125 L 14.609375 -328.625 C 14.609375 -334.132812 17.363281 -336.890625 22.875 -336.890625 L 68.40625 -336.890625 C 73.757812 -336.890625 76.4375 -334.132812 76.4375 -328.625 L 76.4375 -76.4375 C 76.4375 -69.625 78.054688 -64.390625 81.296875 -60.734375 C 84.546875 -57.078125 90.632812 -55.25 99.5625 -55.25 L 103.703125 -55.25 C 107.429688 -55.25 109.617188 -54.191406 110.265625 -52.078125 C 110.921875 -49.972656 111.25 -48.03125 111.25 -46.25 Z M 111.25 -46.25 "/></g></g></g></svg>