<svg xmlns="http://www.w3.org/2000/svg" xmlns:xlink="http://www.w3.org/1999/xlink" width="1920" zoomAndPan="magnify" viewBox="0 0 1440 809.999993" height="1080" preserveAspectRatio="xMidYMid meet" version="1.0"><defs><g/></defs><g fill="#ffffff" fill-opacity="1"><g transform="translate(294.366553, 575.655225)"><g><path d="M 162.25 -340.5 L 162.25 -85.0625 C 162.25 -71.175781 159.796875 -58.644531 154.890625 -47.46875 C 149.984375 -36.300781 143.210938 -26.738281 134.578125 -18.78125 C 125.941406 -10.832031 116.035156 -4.78125 104.859375 -0.625 C 93.691406 3.519531 81.757812 5.59375 69.0625 5.59375 C 56.195312 5.59375 43.539062 3.179688 31.09375 -1.640625 C 18.65625 -6.472656 8.207031 -14.050781 -0.25 -24.375 C -1.4375 -25.726562 -2.578125 -28.015625 -3.671875 -31.234375 C -4.773438 -34.453125 -4.398438 -37.242188 -2.546875 -39.609375 L 20.828125 -69.0625 C 22.859375 -71.601562 25.226562 -72.875 27.9375 -72.875 C 30.644531 -72.875 33.097656 -71.601562 35.296875 -69.0625 C 39.015625 -65.34375 43.539062 -62.171875 48.875 -59.546875 C 54.207031 -56.921875 59.753906 -55.609375 65.515625 -55.609375 C 75.492188 -55.609375 82.851562 -58.820312 87.59375 -65.25 C 92.332031 -71.6875 94.703125 -79.5625 94.703125 -88.875 L 94.703125 -341.765625 C 94.703125 -345.660156 95.546875 -348.242188 97.234375 -349.515625 C 98.929688 -350.785156 100.457031 -351.421875 101.8125 -351.421875 L 153.109375 -351.421875 C 159.203125 -351.421875 162.25 -347.78125 162.25 -340.5 Z M 162.25 -340.5 "/></g></g></g><g fill="#ffffff" fill-opacity="1"><g transform="translate(500.419013, 575.655225)"><g><path d="M 120.09375 -75.40625 L 120.09375 -114 L 108.171875 -114 C 99.023438 -114 91.867188 -112.5625 86.703125 -109.6875 C 81.546875 -106.8125 77.953125 -103.003906 75.921875 -98.265625 C 73.890625 -93.523438 72.875 -88.363281 72.875 -82.78125 L 72.875 -78.96875 C 72.875 -72.53125 74.140625 -67.28125 76.671875 -63.21875 C 79.210938 -59.15625 82.390625 -56.191406 86.203125 -54.328125 C 90.015625 -52.472656 93.78125 -51.546875 97.5 -51.546875 C 102.914062 -51.546875 108.035156 -53.445312 112.859375 -57.25 C 117.679688 -61.0625 120.09375 -67.113281 120.09375 -75.40625 Z M 90.140625 -159.96875 L 120.09375 -159.71875 L 120.09375 -177.734375 C 120.09375 -182.984375 118.992188 -188.273438 116.796875 -193.609375 C 114.597656 -198.941406 111.171875 -203.425781 106.515625 -207.0625 C 101.859375 -210.707031 95.722656 -212.53125 88.109375 -212.53125 C 77.785156 -212.53125 69.066406 -211.128906 61.953125 -208.328125 C 54.847656 -205.535156 48.925781 -202.445312 44.1875 -199.0625 C 43 -198.382812 41.769531 -197.75 40.5 -197.15625 C 39.226562 -196.570312 38 -196.28125 36.8125 -196.28125 C 34.78125 -196.28125 33.175781 -197.378906 32 -199.578125 L 19.296875 -227.765625 C 18.109375 -230.128906 17.640625 -232.582031 17.890625 -235.125 C 18.148438 -237.664062 20.394531 -240.203125 24.625 -242.734375 C 30.894531 -246.628906 37.457031 -250.226562 44.3125 -253.53125 C 51.164062 -256.832031 58.953125 -259.539062 67.671875 -261.65625 C 76.390625 -263.769531 86.671875 -264.828125 98.515625 -264.828125 C 109.015625 -264.828125 119.34375 -263.09375 129.5 -259.625 C 139.65625 -256.15625 148.835938 -250.992188 157.046875 -244.140625 C 165.253906 -237.285156 171.8125 -228.820312 176.71875 -218.75 C 181.632812 -208.675781 184.09375 -197.035156 184.09375 -183.828125 L 184.09375 -73.125 C 184.09375 -60.425781 181.972656 -49.59375 177.734375 -40.625 C 173.503906 -31.65625 168.003906 -24.207031 161.234375 -18.28125 C 154.460938 -12.351562 147.140625 -7.695312 139.265625 -4.3125 C 131.398438 -0.925781 123.695312 1.441406 116.15625 2.796875 C 108.625 4.148438 102.148438 4.828125 96.734375 4.828125 C 86.753906 4.828125 76.597656 3.257812 66.265625 0.125 C 55.941406 -3.007812 46.421875 -7.875 37.703125 -14.46875 C 28.984375 -21.070312 21.957031 -29.617188 16.625 -40.109375 C 11.300781 -50.609375 8.640625 -63.222656 8.640625 -77.953125 L 8.640625 -83.53125 C 8.640625 -97.070312 10.835938 -108.664062 15.234375 -118.3125 C 19.640625 -127.96875 25.648438 -135.882812 33.265625 -142.0625 C 40.878906 -148.238281 49.59375 -152.765625 59.40625 -155.640625 C 69.226562 -158.523438 79.472656 -159.96875 90.140625 -159.96875 Z M 90.140625 -159.96875 "/></g></g></g><g fill="#ffffff" fill-opacity="1"><g transform="translate(722.468171, 575.655225)"><g><path d="M 98.515625 -101.3125 L 100.296875 -83.53125 L 102.328125 -101.8125 L 132.296875 -252.140625 C 132.972656 -255.015625 134.195312 -257.046875 135.96875 -258.234375 C 137.75 -259.421875 139.910156 -260.015625 142.453125 -260.015625 L 190.1875 -260.015625 C 194.414062 -260.015625 196.953125 -258.703125 197.796875 -256.078125 C 198.640625 -253.453125 198.472656 -250.191406 197.296875 -246.296875 L 135.078125 -7.625 C 133.390625 -2.539062 130.175781 0 125.4375 0 L 75.40625 0 C 70.332031 0 67.203125 -2.625 66.015625 -7.875 L 3.8125 -246.296875 C 1.613281 -255.441406 3.898438 -260.015625 10.671875 -260.015625 L 59.15625 -260.015625 C 64.75 -260.015625 67.882812 -257.21875 68.5625 -251.625 Z M 98.515625 -101.3125 "/></g></g></g><g fill="#ffffff" fill-opacity="1"><g transform="translate(950.611276, 575.655225)"><g><path d="M 120.09375 -75.40625 L 120.09375 -114 L 108.171875 -114 C 99.023438 -114 91.867188 -112.5625 86.703125 -109.6875 C 81.546875 -106.8125 77.953125 -103.003906 75.921875 -98.265625 C 73.890625 -93.523438 72.875 -88.363281 72.875 -82.78125 L 72.875 -78.96875 C 72.875 -72.53125 74.140625 -67.28125 76.671875 -63.21875 C 79.210938 -59.15625 82.390625 -56.191406 86.203125 -54.328125 C 90.015625 -52.472656 93.78125 -51.546875 97.5 -51.546875 C 102.914062 -51.546875 108.035156 -53.445312 112.859375 -57.25 C 117.679688 -61.0625 120.09375 -67.113281 120.09375 -75.40625 Z M 90.140625 -159.96875 L 120.09375 -159.71875 L 120.09375 -177.734375 C 120.09375 -182.984375 118.992188 -188.273438 116.796875 -193.609375 C 114.597656 -198.941406 111.171875 -203.425781 106.515625 -207.0625 C 101.859375 -210.707031 95.722656 -212.53125 88.109375 -212.53125 C 77.785156 -212.53125 69.066406 -211.128906 61.953125 -208.328125 C 54.847656 -205.535156 48.925781 -202.445312 44.1875 -199.0625 C 43 -198.382812 41.769531 -197.75 40.5 -197.15625 C 39.226562 -196.570312 38 -196.28125 36.8125 -196.28125 C 34.78125 -196.28125 33.175781 -197.378906 32 -199.578125 L 19.296875 -227.765625 C 18.109375 -230.128906 17.640625 -232.582031 17.890625 -235.125 C 18.148438 -237.664062 20.394531 -240.203125 24.625 -242.734375 C 30.894531 -246.628906 37.457031 -250.226562 44.3125 -253.53125 C 51.164062 -256.832031 58.953125 -259.539062 67.671875 -261.65625 C 76.390625 -263.769531 86.671875 -264.828125 98.515625 -264.828125 C 109.015625 -264.828125 119.34375 -263.09375 129.5 -259.625 C 139.65625 -256.15625 148.835938 -250.992188 157.046875 -244.140625 C 165.253906 -237.285156 171.8125 -228.820312 176.71875 -218.75 C 181.632812 -208.675781 184.09375 -197.035156 184.09375 -183.828125 L 184.09375 -73.125 C 184.09375 -60.425781 181.972656 -49.59375 177.734375 -40.625 C 173.503906 -31.65625 168.003906 -24.207031 161.234375 -18.28125 C 154.460938 -12.351562 147.140625 -7.695312 139.265625 -4.3125 C 131.398438 -0.925781 123.695312 1.441406 116.15625 2.796875 C 108.625 4.148438 102.148438 4.828125 96.734375 4.828125 C 86.753906 4.828125 76.597656 3.257812 66.265625 0.125 C 55.941406 -3.007812 46.421875 -7.875 37.703125 -14.46875 C 28.984375 -21.070312 21.957031 -29.617188 16.625 -40.109375 C 11.300781 -50.609375 8.640625 -63.222656 8.640625 -77.953125 L 8.640625 -83.53125 C 8.640625 -97.070312 10.835938 -108.664062 15.234375 -118.3125 C 19.640625 -127.96875 25.648438 -135.882812 33.265625 -142.0625 C 40.878906 -148.238281 49.59375 -152.765625 59.40625 -155.640625 C 69.226562 -158.523438 79.472656 -159.96875 90.140625 -159.96875 Z M 90.140625 -159.96875 "/></g></g></g></svg>