<svg xmlns="http://www.w3.org/2000/svg" xmlns:xlink="http://www.w3.org/1999/xlink" width="1920" zoomAndPan="magnify" viewBox="0 0 1440 809.999993" height="1080" preserveAspectRatio="xMidYMid meet" version="1.0"><defs><g/></defs><g fill="#ffffff" fill-opacity="1"><g transform="translate(39.080776, 523.061485)"><g><path d="M 112.25 -235.5625 L 112.25 -58.84375 C 112.25 -49.238281 110.550781 -40.570312 107.15625 -32.84375 C 103.757812 -25.113281 99.070312 -18.5 93.09375 -13 C 87.125 -7.5 80.273438 -3.3125 72.546875 -0.4375 C 64.816406 2.425781 56.5625 3.859375 47.78125 3.859375 C 38.882812 3.859375 30.128906 2.191406 21.515625 -1.140625 C 12.910156 -4.472656 5.679688 -9.710938 -0.171875 -16.859375 C -0.992188 -17.796875 -1.785156 -19.375 -2.546875 -21.59375 C -3.304688 -23.820312 -3.039062 -25.757812 -1.75 -27.40625 L 14.40625 -47.78125 C 15.8125 -49.539062 17.453125 -50.421875 19.328125 -50.421875 C 21.203125 -50.421875 22.898438 -49.539062 24.421875 -47.78125 C 26.992188 -45.207031 30.125 -43.007812 33.8125 -41.1875 C 37.5 -39.375 41.335938 -38.46875 45.328125 -38.46875 C 52.234375 -38.46875 57.328125 -40.691406 60.609375 -45.140625 C 63.890625 -49.597656 65.53125 -55.046875 65.53125 -61.484375 L 65.53125 -236.453125 C 65.53125 -239.140625 66.113281 -240.921875 67.28125 -241.796875 C 68.445312 -242.679688 69.5 -243.125 70.4375 -243.125 L 105.921875 -243.125 C 110.140625 -243.125 112.25 -240.601562 112.25 -235.5625 Z M 112.25 -235.5625 "/></g></g></g><g fill="#ffffff" fill-opacity="1"><g transform="translate(181.630475, 523.061485)"><g><path d="M 83.09375 -52.171875 L 83.09375 -78.875 L 74.828125 -78.875 C 68.503906 -78.875 63.554688 -77.878906 59.984375 -75.890625 C 56.410156 -73.898438 53.921875 -71.265625 52.515625 -67.984375 C 51.117188 -64.703125 50.421875 -61.128906 50.421875 -57.265625 L 50.421875 -54.625 C 50.421875 -50.175781 51.296875 -46.546875 53.046875 -43.734375 C 54.804688 -40.929688 57.003906 -38.882812 59.640625 -37.59375 C 62.273438 -36.300781 64.878906 -35.65625 67.453125 -35.65625 C 71.203125 -35.65625 74.742188 -36.972656 78.078125 -39.609375 C 81.421875 -42.242188 83.09375 -46.429688 83.09375 -52.171875 Z M 62.359375 -110.671875 L 83.09375 -110.5 L 83.09375 -122.96875 C 83.09375 -126.59375 82.328125 -130.25 80.796875 -133.9375 C 79.273438 -137.632812 76.90625 -140.738281 73.6875 -143.25 C 70.46875 -145.769531 66.222656 -147.03125 60.953125 -147.03125 C 53.804688 -147.03125 47.773438 -146.0625 42.859375 -144.125 C 37.941406 -142.195312 33.84375 -140.0625 30.5625 -137.71875 C 29.75 -137.25 28.898438 -136.8125 28.015625 -136.40625 C 27.140625 -136 26.289062 -135.796875 25.46875 -135.796875 C 24.0625 -135.796875 22.953125 -136.554688 22.140625 -138.078125 L 13.34375 -157.578125 C 12.53125 -159.210938 12.207031 -160.90625 12.375 -162.65625 C 12.550781 -164.414062 14.109375 -166.175781 17.046875 -167.9375 C 21.378906 -170.632812 25.914062 -173.125 30.65625 -175.40625 C 35.394531 -177.6875 40.78125 -179.554688 46.8125 -181.015625 C 52.84375 -182.484375 59.957031 -183.21875 68.15625 -183.21875 C 75.414062 -183.21875 82.554688 -182.015625 89.578125 -179.609375 C 96.609375 -177.210938 102.960938 -173.644531 108.640625 -168.90625 C 114.328125 -164.164062 118.867188 -158.3125 122.265625 -151.34375 C 125.660156 -144.375 127.359375 -136.320312 127.359375 -127.1875 L 127.359375 -50.59375 C 127.359375 -41.8125 125.894531 -34.316406 122.96875 -28.109375 C 120.039062 -21.898438 116.234375 -16.742188 111.546875 -12.640625 C 106.859375 -8.546875 101.789062 -5.328125 96.34375 -2.984375 C 90.90625 -0.640625 85.578125 1 80.359375 1.9375 C 75.148438 2.875 70.671875 3.34375 66.921875 3.34375 C 60.015625 3.34375 52.988281 2.257812 45.84375 0.09375 C 38.707031 -2.070312 32.125 -5.4375 26.09375 -10 C 20.0625 -14.570312 15.195312 -20.488281 11.5 -27.75 C 7.8125 -35.007812 5.96875 -43.738281 5.96875 -53.9375 L 5.96875 -57.796875 C 5.96875 -67.160156 7.488281 -75.179688 10.53125 -81.859375 C 13.582031 -88.535156 17.742188 -94.007812 23.015625 -98.28125 C 28.285156 -102.5625 34.316406 -105.695312 41.109375 -107.6875 C 47.898438 -109.675781 54.984375 -110.671875 62.359375 -110.671875 Z M 62.359375 -110.671875 "/></g></g></g><g fill="#ffffff" fill-opacity="1"><g transform="translate(335.246892, 523.061485)"><g><path d="M 68.15625 -70.09375 L 69.390625 -57.796875 L 70.796875 -70.4375 L 91.515625 -174.4375 C 91.984375 -176.425781 92.832031 -177.832031 94.0625 -178.65625 C 95.300781 -179.476562 96.796875 -179.890625 98.546875 -179.890625 L 131.578125 -179.890625 C 134.503906 -179.890625 136.257812 -178.976562 136.84375 -177.15625 C 137.425781 -175.34375 137.3125 -173.085938 136.5 -170.390625 L 93.453125 -5.265625 C 92.285156 -1.753906 90.0625 0 86.78125 0 L 52.171875 0 C 48.660156 0 46.492188 -1.816406 45.671875 -5.453125 L 2.640625 -170.390625 C 1.109375 -176.722656 2.6875 -179.890625 7.375 -179.890625 L 40.9375 -179.890625 C 44.800781 -179.890625 46.96875 -177.953125 47.4375 -174.078125 Z M 68.15625 -70.09375 "/></g></g></g><g fill="#ffffff" fill-opacity="1"><g transform="translate(493.079178, 523.061485)"><g><path d="M 83.09375 -52.171875 L 83.09375 -78.875 L 74.828125 -78.875 C 68.503906 -78.875 63.554688 -77.878906 59.984375 -75.890625 C 56.410156 -73.898438 53.921875 -71.265625 52.515625 -67.984375 C 51.117188 -64.703125 50.421875 -61.128906 50.421875 -57.265625 L 50.421875 -54.625 C 50.421875 -50.175781 51.296875 -46.546875 53.046875 -43.734375 C 54.804688 -40.929688 57.003906 -38.882812 59.640625 -37.59375 C 62.273438 -36.300781 64.878906 -35.65625 67.453125 -35.65625 C 71.203125 -35.65625 74.742188 -36.972656 78.078125 -39.609375 C 81.421875 -42.242188 83.09375 -46.429688 83.09375 -52.171875 Z M 62.359375 -110.671875 L 83.09375 -110.5 L 83.09375 -122.96875 C 83.09375 -126.59375 82.328125 -130.25 80.796875 -133.9375 C 79.273438 -137.632812 76.90625 -140.738281 73.6875 -143.25 C 70.46875 -145.769531 66.222656 -147.03125 60.953125 -147.03125 C 53.804688 -147.03125 47.773438 -146.0625 42.859375 -144.125 C 37.941406 -142.195312 33.84375 -140.0625 30.5625 -137.71875 C 29.75 -137.25 28.898438 -136.8125 28.015625 -136.40625 C 27.140625 -136 26.289062 -135.796875 25.46875 -135.796875 C 24.0625 -135.796875 22.953125 -136.554688 22.140625 -138.078125 L 13.34375 -157.578125 C 12.53125 -159.210938 12.207031 -160.90625 12.375 -162.65625 C 12.550781 -164.414062 14.109375 -166.175781 17.046875 -167.9375 C 21.378906 -170.632812 25.914062 -173.125 30.65625 -175.40625 C 35.394531 -177.6875 40.78125 -179.554688 46.8125 -181.015625 C 52.84375 -182.484375 59.957031 -183.21875 68.15625 -183.21875 C 75.414062 -183.21875 82.554688 -182.015625 89.578125 -179.609375 C 96.609375 -177.210938 102.960938 -173.644531 108.640625 -168.90625 C 114.328125 -164.164062 118.867188 -158.3125 122.265625 -151.34375 C 125.660156 -144.375 127.359375 -136.320312 127.359375 -127.1875 L 127.359375 -50.59375 C 127.359375 -41.8125 125.894531 -34.316406 122.96875 -28.109375 C 120.039062 -21.898438 116.234375 -16.742188 111.546875 -12.640625 C 106.859375 -8.546875 101.789062 -5.328125 96.34375 -2.984375 C 90.90625 -0.640625 85.578125 1 80.359375 1.9375 C 75.148438 2.875 70.671875 3.34375 66.921875 3.34375 C 60.015625 3.34375 52.988281 2.257812 45.84375 0.09375 C 38.707031 -2.070312 32.125 -5.4375 26.09375 -10 C 20.0625 -14.570312 15.195312 -20.488281 11.5 -27.75 C 7.8125 -35.007812 5.96875 -43.738281 5.96875 -53.9375 L 5.96875 -57.796875 C 5.96875 -67.160156 7.488281 -75.179688 10.53125 -81.859375 C 13.582031 -88.535156 17.742188 -94.007812 23.015625 -98.28125 C 28.285156 -102.5625 34.316406 -105.695312 41.109375 -107.6875 C 47.898438 -109.675781 54.984375 -110.671875 62.359375 -110.671875 Z M 62.359375 -110.671875 "/></g></g></g><g fill="#ffffff" fill-opacity="1"><g transform="translate(646.695595, 523.061485)"><g><path d="M 88.359375 -172.6875 L 88.359375 -182.515625 C 88.359375 -188.609375 86.773438 -193.820312 83.609375 -198.15625 C 80.453125 -202.488281 75.710938 -204.65625 69.390625 -204.65625 C 66.460938 -204.65625 63.535156 -203.921875 60.609375 -202.453125 C 57.679688 -200.992188 55.25 -198.648438 53.3125 -195.421875 C 51.382812 -192.203125 50.421875 -187.898438 50.421875 -182.515625 C 50.421875 -177.015625 51.503906 -172.300781 53.671875 -168.375 C 55.835938 -164.445312 58.878906 -160.785156 62.796875 -157.390625 C 66.722656 -153.992188 71.265625 -150.25 76.421875 -146.15625 C 84.617188 -139.832031 92.285156 -133.679688 99.421875 -127.703125 C 106.566406 -121.734375 112.832031 -115.410156 118.21875 -108.734375 C 123.601562 -102.054688 127.816406 -94.5625 130.859375 -86.25 C 133.910156 -77.9375 135.4375 -68.21875 135.4375 -57.09375 C 135.4375 -48.894531 133.882812 -41.132812 130.78125 -33.8125 C 127.675781 -26.5 123.285156 -20 117.609375 -14.3125 C 111.929688 -8.632812 105.109375 -4.1875 97.140625 -0.96875 C 89.179688 2.25 80.34375 3.859375 70.625 3.859375 C 60.082031 3.859375 50.828125 2.132812 42.859375 -1.3125 C 34.898438 -4.769531 28.253906 -9.425781 22.921875 -15.28125 C 17.597656 -21.132812 13.617188 -27.867188 10.984375 -35.484375 C 8.347656 -43.097656 7.03125 -51.003906 7.03125 -59.203125 L 7.03125 -68.515625 C 7.03125 -71.554688 7.410156 -73.71875 8.171875 -75 C 8.929688 -76.289062 10.539062 -76.9375 13 -76.9375 L 44.96875 -76.9375 C 47.425781 -76.9375 49.035156 -76.410156 49.796875 -75.359375 C 50.554688 -74.304688 50.9375 -72.429688 50.9375 -69.734375 L 50.9375 -61.828125 C 50.9375 -55.972656 51.988281 -51.347656 54.09375 -47.953125 C 56.207031 -44.554688 58.816406 -42.15625 61.921875 -40.75 C 65.023438 -39.34375 68.039062 -38.640625 70.96875 -38.640625 C 76.46875 -38.640625 81.179688 -40.515625 85.109375 -44.265625 C 89.035156 -48.015625 91 -53.109375 91 -59.546875 C 91 -65.285156 89.941406 -70.234375 87.828125 -74.390625 C 85.722656 -78.546875 82.414062 -82.734375 77.90625 -86.953125 C 73.394531 -91.171875 67.507812 -96.207031 60.25 -102.0625 C 51.113281 -109.5625 43.175781 -116.175781 36.4375 -121.90625 C 29.707031 -127.644531 24.175781 -133.351562 19.84375 -139.03125 C 15.507812 -144.71875 12.289062 -151.070312 10.1875 -158.09375 C 8.082031 -165.125 7.03125 -173.675781 7.03125 -183.75 C 7.03125 -192.882812 8.375 -200.9375 11.0625 -207.90625 C 13.757812 -214.875 17.363281 -220.816406 21.875 -225.734375 C 26.382812 -230.648438 31.390625 -234.660156 36.890625 -237.765625 C 42.390625 -240.867188 47.953125 -243.148438 53.578125 -244.609375 C 59.203125 -246.078125 64.472656 -246.8125 69.390625 -246.8125 C 81.566406 -246.8125 92.335938 -244.175781 101.703125 -238.90625 C 111.078125 -233.632812 118.425781 -226.195312 123.75 -216.59375 C 129.082031 -206.988281 131.75 -195.6875 131.75 -182.6875 L 131.75 -172.6875 C 131.75 -170.21875 131.304688 -168.484375 130.421875 -167.484375 C 129.546875 -166.492188 127.707031 -166 124.90625 -166 L 93.453125 -166 C 91.222656 -166 89.816406 -166.492188 89.234375 -167.484375 C 88.648438 -168.484375 88.359375 -170.21875 88.359375 -172.6875 Z M 88.359375 -172.6875 "/></g></g></g><g fill="#ffffff" fill-opacity="1"><g transform="translate(805.933203, 523.061485)"><g><path d="M 89.234375 -66.40625 L 120.15625 -66.40625 C 122.03125 -66.40625 123.316406 -65.992188 124.015625 -65.171875 C 124.722656 -64.347656 125.078125 -62.941406 125.078125 -60.953125 L 125.078125 -50.0625 C 125.078125 -42.6875 123.640625 -35.75 120.765625 -29.25 C 117.898438 -22.75 113.890625 -17.066406 108.734375 -12.203125 C 103.585938 -7.347656 97.46875 -3.539062 90.375 -0.78125 C 83.289062 1.96875 75.535156 3.34375 67.109375 3.34375 C 58.910156 3.34375 51.179688 2.054688 43.921875 -0.515625 C 36.660156 -3.097656 30.304688 -6.757812 24.859375 -11.5 C 19.410156 -16.25 15.132812 -21.898438 12.03125 -28.453125 C 8.925781 -35.015625 7.375 -42.21875 7.375 -50.0625 L 7.375 -130 C 7.375 -137.375 8.925781 -144.25 12.03125 -150.625 C 15.132812 -157.007812 19.410156 -162.660156 24.859375 -167.578125 C 30.304688 -172.503906 36.660156 -176.34375 43.921875 -179.09375 C 51.179688 -181.84375 58.910156 -183.21875 67.109375 -183.21875 C 75.535156 -183.21875 83.289062 -181.84375 90.375 -179.09375 C 97.46875 -176.34375 103.585938 -172.503906 108.734375 -167.578125 C 113.890625 -162.660156 117.898438 -157.007812 120.765625 -150.625 C 123.640625 -144.25 125.078125 -137.375 125.078125 -130 L 125.078125 -116.109375 C 125.078125 -113.890625 124.695312 -112.367188 123.9375 -111.546875 C 123.175781 -110.722656 121.914062 -110.3125 120.15625 -110.3125 L 90.640625 -110.3125 C 88.066406 -110.3125 86.3125 -110.722656 85.375 -111.546875 C 84.4375 -112.367188 83.96875 -113.953125 83.96875 -116.296875 L 83.96875 -128.40625 C 83.96875 -132.394531 82.59375 -136.023438 79.84375 -139.296875 C 77.09375 -142.578125 73.195312 -144.21875 68.15625 -144.21875 C 63.46875 -144.21875 59.570312 -142.609375 56.46875 -139.390625 C 53.375 -136.171875 51.828125 -132.628906 51.828125 -128.765625 L 51.828125 -51.296875 C 51.828125 -47.316406 53.375 -43.710938 56.46875 -40.484375 C 59.570312 -37.265625 63.46875 -35.65625 68.15625 -35.65625 C 73.195312 -35.65625 77.09375 -37.320312 79.84375 -40.65625 C 82.59375 -44 83.96875 -47.601562 83.96875 -51.46875 L 83.96875 -60.25 C 83.96875 -62.59375 84.347656 -64.203125 85.109375 -65.078125 C 85.867188 -65.960938 87.242188 -66.40625 89.234375 -66.40625 Z M 89.234375 -66.40625 "/></g></g></g><g fill="#ffffff" fill-opacity="1"><g transform="translate(955.333679, 523.061485)"><g><path d="M 94.328125 -174.96875 L 94.328125 -149.671875 C 94.328125 -147.328125 93.476562 -145.628906 91.78125 -144.578125 C 90.082031 -143.523438 88.179688 -143 86.078125 -143 L 77.125 -143 C 69.851562 -143 63.992188 -140.566406 59.546875 -135.703125 C 55.097656 -130.835938 52.875 -124.191406 52.875 -115.765625 L 52.875 -8.25 C 52.875 -5.207031 51.96875 -3.070312 50.15625 -1.84375 C 48.34375 -0.613281 46.613281 0 44.96875 0 L 13.703125 0 C 12.179688 0 10.921875 -0.523438 9.921875 -1.578125 C 8.929688 -2.628906 8.4375 -4.148438 8.4375 -6.140625 L 8.4375 -121.734375 C 8.4375 -132.859375 10.28125 -142.316406 13.96875 -150.109375 C 17.65625 -157.898438 22.539062 -164.222656 28.625 -169.078125 C 34.71875 -173.941406 41.394531 -177.515625 48.65625 -179.796875 C 55.914062 -182.078125 63.0625 -183.21875 70.09375 -183.21875 C 74.070312 -183.21875 77.613281 -183.128906 80.71875 -182.953125 C 83.820312 -182.773438 86.660156 -182.394531 89.234375 -181.8125 C 92.628906 -180.875 94.328125 -178.59375 94.328125 -174.96875 Z M 94.328125 -174.96875 "/></g></g></g><g fill="#ffffff" fill-opacity="1"><g transform="translate(1070.128773, 523.061485)"><g><path d="M 10.359375 -5.796875 L 10.359375 -174.4375 C 10.359375 -176.070312 10.972656 -177.390625 12.203125 -178.390625 C 13.429688 -179.390625 14.8125 -179.890625 16.34375 -179.890625 L 48.484375 -179.890625 C 50.242188 -179.890625 51.796875 -179.359375 53.140625 -178.296875 C 54.484375 -177.242188 55.15625 -175.957031 55.15625 -174.4375 L 55.15625 -5.796875 C 55.15625 -3.921875 54.539062 -2.484375 53.3125 -1.484375 C 52.082031 -0.492188 50.472656 0 48.484375 0 L 16.34375 0 C 12.351562 0 10.359375 -1.929688 10.359375 -5.796875 Z M 56.03125 -226.078125 L 56.03125 -201.84375 C 56.03125 -198.5625 55.238281 -196.304688 53.65625 -195.078125 C 52.082031 -193.847656 49.832031 -193.234375 46.90625 -193.234375 L 18.625 -193.234375 C 15.570312 -193.234375 13.109375 -193.816406 11.234375 -194.984375 C 9.367188 -196.160156 8.4375 -198.390625 8.4375 -201.671875 L 8.4375 -226.265625 C 8.4375 -228.953125 9.195312 -231.171875 10.71875 -232.921875 C 12.238281 -234.679688 14.8125 -235.5625 18.4375 -235.5625 L 46.90625 -235.5625 C 50.300781 -235.5625 52.671875 -234.742188 54.015625 -233.109375 C 55.359375 -231.472656 56.03125 -229.128906 56.03125 -226.078125 Z M 56.03125 -226.078125 "/></g></g></g><g fill="#ffffff" fill-opacity="1"><g transform="translate(1154.358593, 523.061485)"><g><path d="M 52.34375 -128.59375 L 52.34375 -50.421875 C 52.46875 -46.671875 53.960938 -43.269531 56.828125 -40.21875 C 59.691406 -37.175781 63.46875 -35.65625 68.15625 -35.65625 C 72.957031 -35.65625 76.765625 -37.265625 79.578125 -40.484375 C 82.390625 -43.710938 83.796875 -47.316406 83.796875 -51.296875 L 83.796875 -128.59375 C 83.796875 -132.457031 82.390625 -136.023438 79.578125 -139.296875 C 76.765625 -142.578125 72.957031 -144.21875 68.15625 -144.21875 C 63.46875 -144.21875 59.660156 -142.609375 56.734375 -139.390625 C 53.804688 -136.171875 52.34375 -132.570312 52.34375 -128.59375 Z M 128.234375 -129.8125 L 128.234375 -49.890625 C 128.234375 -39.460938 125.859375 -30.238281 121.109375 -22.21875 C 116.367188 -14.195312 109.898438 -7.929688 101.703125 -3.421875 C 93.515625 1.085938 84.148438 3.34375 73.609375 3.34375 C 70.328125 3.34375 66.867188 2.929688 63.234375 2.109375 C 59.609375 1.285156 55.976562 0.113281 52.34375 -1.40625 L 52.34375 50.59375 C 52.34375 54.570312 50.472656 56.5625 46.734375 56.5625 L 13.703125 56.5625 C 9.835938 56.5625 7.90625 54.570312 7.90625 50.59375 L 7.90625 -129.8125 C 7.90625 -137.78125 9.457031 -145.015625 12.5625 -151.515625 C 15.664062 -158.015625 19.96875 -163.632812 25.46875 -168.375 C 30.976562 -173.113281 37.363281 -176.769531 44.625 -179.34375 C 51.882812 -181.925781 59.671875 -183.21875 67.984375 -183.21875 C 76.296875 -183.21875 84.109375 -181.925781 91.421875 -179.34375 C 98.742188 -176.769531 105.15625 -173.113281 110.65625 -168.375 C 116.164062 -163.632812 120.472656 -158.015625 123.578125 -151.515625 C 126.679688 -145.015625 128.234375 -137.78125 128.234375 -129.8125 Z M 128.234375 -129.8125 "/></g></g></g><g fill="#ffffff" fill-opacity="1"><g transform="translate(1308.677709, 523.061485)"><g><path d="M 76.765625 0 L 65.703125 0 C 58.910156 0 52.554688 -0.816406 46.640625 -2.453125 C 40.722656 -4.097656 35.539062 -6.878906 31.09375 -10.796875 C 26.644531 -14.722656 23.160156 -20.082031 20.640625 -26.875 C 18.117188 -33.664062 16.859375 -42.21875 16.859375 -52.53125 L 16.859375 -140.703125 L 6.5 -140.703125 C 5.5625 -140.703125 4.445312 -141.257812 3.15625 -142.375 C 1.875 -143.488281 1.234375 -145.097656 1.234375 -147.203125 L 1.234375 -173.203125 C 1.234375 -175.546875 1.847656 -177.273438 3.078125 -178.390625 C 4.304688 -179.503906 5.445312 -180.0625 6.5 -180.0625 L 16.859375 -180.0625 L 16.859375 -206.9375 C 16.859375 -208.925781 17.207031 -210.476562 17.90625 -211.59375 C 18.613281 -212.707031 19.90625 -213.5 21.78125 -213.96875 L 54.625 -223.625 C 54.976562 -223.738281 55.507812 -223.796875 56.21875 -223.796875 C 59.726562 -223.796875 61.484375 -221.863281 61.484375 -218 L 61.484375 -180.0625 L 79.21875 -180.0625 C 82.5 -180.0625 84.140625 -177.894531 84.140625 -173.5625 L 84.140625 -147.203125 C 84.140625 -145.328125 83.640625 -143.773438 82.640625 -142.546875 C 81.648438 -141.316406 80.335938 -140.703125 78.703125 -140.703125 L 61.484375 -140.703125 L 61.484375 -55.15625 C 61.484375 -50.238281 62.65625 -46.460938 65 -43.828125 C 67.34375 -41.191406 71.734375 -39.875 78.171875 -39.875 L 81.15625 -39.875 C 83.726562 -39.875 85.25 -39.113281 85.71875 -37.59375 C 86.1875 -36.070312 86.421875 -34.664062 86.421875 -33.375 L 86.421875 -5.625 C 86.421875 -4.445312 85.984375 -3.210938 85.109375 -1.921875 C 84.234375 -0.640625 81.453125 0 76.765625 0 Z M 76.765625 0 "/></g></g></g></svg>