<svg xmlns="http://www.w3.org/2000/svg" xmlns:xlink="http://www.w3.org/1999/xlink" width="500" zoomAndPan="magnify" viewBox="0 0 375 374.999991" height="500" preserveAspectRatio="xMidYMid meet" version="1.0"><defs><clipPath id="6c90369a09"><path d="M 210 61.171875 L 329 61.171875 L 329 180 L 210 180 Z M 210 61.171875 " clip-rule="nonzero"/></clipPath><clipPath id="80fa904705"><path d="M 0 221 L 211 221 L 211 313.921875 L 0 313.921875 Z M 0 221 " clip-rule="nonzero"/></clipPath></defs><path fill="#5df466" d="M 315.824219 199.046875 L 223.539062 199.046875 C 214.132812 199.046875 205.175781 201.285156 197.332031 205.320312 C 222.652344 220.773438 239.667969 248.773438 239.667969 280.578125 L 239.667969 291.554688 L 374.960938 291.554688 L 374.960938 258.402344 C 374.960938 225.703125 348.523438 199.046875 315.824219 199.046875 Z M 315.824219 199.046875 " fill-opacity="1" fill-rule="nonzero"/><g clip-path="url(#6c90369a09)"><path fill="#5df466" d="M 328.882812 120.3125 C 328.882812 122.25 328.789062 124.179688 328.597656 126.109375 C 328.40625 128.035156 328.125 129.949219 327.746094 131.847656 C 327.367188 133.75 326.898438 135.625 326.335938 137.480469 C 325.773438 139.332031 325.121094 141.152344 324.378906 142.945312 C 323.640625 144.734375 322.8125 146.480469 321.898438 148.191406 C 320.988281 149.898438 319.992188 151.558594 318.914062 153.167969 C 317.839844 154.777344 316.6875 156.332031 315.457031 157.828125 C 314.230469 159.328125 312.929688 160.761719 311.5625 162.128906 C 310.191406 163.5 308.757812 164.796875 307.261719 166.027344 C 305.765625 167.257812 304.210938 168.410156 302.601562 169.484375 C 300.988281 170.558594 299.332031 171.554688 297.621094 172.46875 C 295.914062 173.382812 294.164062 174.207031 292.375 174.949219 C 290.585938 175.691406 288.765625 176.34375 286.914062 176.90625 C 285.058594 177.464844 283.183594 177.9375 281.28125 178.316406 C 279.382812 178.691406 277.46875 178.976562 275.542969 179.167969 C 273.613281 179.355469 271.683594 179.449219 269.746094 179.449219 C 267.808594 179.449219 265.878906 179.355469 263.949219 179.167969 C 262.023438 178.976562 260.109375 178.691406 258.207031 178.316406 C 256.308594 177.9375 254.433594 177.46875 252.578125 176.90625 C 250.726562 176.34375 248.90625 175.691406 247.117188 174.949219 C 245.324219 174.207031 243.578125 173.382812 241.871094 172.46875 C 240.160156 171.554688 238.5 170.558594 236.890625 169.484375 C 235.28125 168.410156 233.726562 167.257812 232.230469 166.027344 C 230.734375 164.796875 229.300781 163.5 227.929688 162.128906 C 226.5625 160.761719 225.261719 159.328125 224.03125 157.828125 C 222.804688 156.332031 221.652344 154.777344 220.574219 153.167969 C 219.5 151.558594 218.503906 149.898438 217.59375 148.191406 C 216.679688 146.480469 215.851562 144.734375 215.109375 142.945312 C 214.371094 141.152344 213.71875 139.332031 213.15625 137.480469 C 212.59375 135.625 212.125 133.75 211.746094 131.847656 C 211.367188 129.949219 211.085938 128.035156 210.894531 126.109375 C 210.703125 124.179688 210.609375 122.25 210.609375 120.3125 C 210.609375 118.375 210.703125 116.441406 210.894531 114.515625 C 211.085938 112.585938 211.367188 110.675781 211.746094 108.773438 C 212.125 106.875 212.59375 105 213.15625 103.144531 C 213.71875 101.292969 214.371094 99.46875 215.109375 97.679688 C 215.851562 95.890625 216.679688 94.140625 217.59375 92.433594 C 218.503906 90.726562 219.5 89.066406 220.574219 87.457031 C 221.652344 85.847656 222.804688 84.292969 224.03125 82.792969 C 225.261719 81.296875 226.5625 79.863281 227.929688 78.496094 C 229.300781 77.125 230.734375 75.824219 232.230469 74.597656 C 233.726562 73.367188 235.28125 72.214844 236.890625 71.140625 C 238.5 70.0625 240.160156 69.070312 241.871094 68.15625 C 243.578125 67.242188 245.324219 66.414062 247.117188 65.675781 C 248.90625 64.933594 250.726562 64.28125 252.578125 63.71875 C 254.433594 63.15625 256.308594 62.6875 258.207031 62.308594 C 260.109375 61.929688 262.023438 61.648438 263.949219 61.457031 C 265.878906 61.269531 267.808594 61.171875 269.746094 61.171875 C 271.683594 61.171875 273.613281 61.269531 275.542969 61.457031 C 277.46875 61.648438 279.382812 61.929688 281.28125 62.308594 C 283.183594 62.6875 285.058594 63.15625 286.914062 63.71875 C 288.765625 64.28125 290.585938 64.933594 292.375 65.675781 C 294.164062 66.414062 295.914062 67.242188 297.621094 68.15625 C 299.332031 69.070312 300.988281 70.0625 302.601562 71.140625 C 304.210938 72.214844 305.765625 73.367188 307.261719 74.597656 C 308.757812 75.824219 310.191406 77.125 311.5625 78.496094 C 312.929688 79.863281 314.230469 81.296875 315.457031 82.792969 C 316.6875 84.292969 317.839844 85.847656 318.914062 87.457031 C 319.992188 89.066406 320.988281 90.726562 321.898438 92.433594 C 322.8125 94.140625 323.640625 95.890625 324.378906 97.679688 C 325.121094 99.46875 325.773438 101.292969 326.335938 103.144531 C 326.898438 105 327.367188 106.875 327.746094 108.773438 C 328.125 110.675781 328.40625 112.585938 328.597656 114.515625 C 328.789062 116.441406 328.882812 118.375 328.882812 120.3125 Z M 328.882812 120.3125 " fill-opacity="1" fill-rule="nonzero"/></g><g clip-path="url(#80fa904705)"><path fill="#5df466" d="M 151.417969 221.394531 L 59.230469 221.394531 C 26.539062 221.394531 0.0390625 247.894531 0.0390625 280.582031 L 0.0390625 313.828125 L 210.609375 313.828125 L 210.609375 280.582031 C 210.609375 247.894531 184.109375 221.394531 151.417969 221.394531 Z M 151.417969 221.394531 " fill-opacity="1" fill-rule="nonzero"/></g><path fill="#5df466" d="M 105.320312 201.707031 C 137.988281 201.707031 164.46875 175.230469 164.46875 142.566406 C 164.46875 109.90625 137.988281 83.429688 105.320312 83.429688 C 72.652344 83.429688 46.183594 109.90625 46.183594 142.566406 C 46.183594 175.226562 72.660156 201.707031 105.320312 201.707031 Z M 105.320312 201.707031 " fill-opacity="1" fill-rule="nonzero"/></svg>