<svg xmlns="http://www.w3.org/2000/svg" xmlns:xlink="http://www.w3.org/1999/xlink" width="500" zoomAndPan="magnify" viewBox="0 0 375 374.999991" height="500" preserveAspectRatio="xMidYMid meet" version="1.0"><path fill="#a6a6a6" d="M 122.347656 203.324219 C 83.296875 111 219.175781 55.21875 256.542969 148.035156 C 285.648438 235.441406 162.894531 285.835938 122.347656 203.324219 Z M 291.132812 244.859375 C 369.449219 241.507812 359.492188 126.082031 281.6875 136.363281 C 282.503906 138.464844 283.25 140.589844 283.921875 142.738281 C 284.59375 144.890625 285.195312 147.058594 285.722656 149.25 C 286.25 151.441406 286.703125 153.644531 287.082031 155.867188 C 287.460938 158.085938 287.765625 160.320312 287.992188 162.558594 C 288.222656 164.800781 288.375 167.046875 288.453125 169.300781 C 288.535156 171.550781 288.535156 173.800781 288.464844 176.054688 C 288.390625 178.304688 288.242188 180.554688 288.015625 182.796875 C 287.792969 185.035156 287.496094 187.269531 287.121094 189.492188 C 286.746094 191.710938 286.300781 193.917969 285.777344 196.109375 C 285.253906 198.300781 284.660156 200.472656 283.992188 202.625 C 283.324219 204.777344 282.585938 206.902344 281.773438 209.007812 C 280.960938 211.109375 280.082031 213.179688 279.132812 215.222656 C 278.183594 217.265625 277.164062 219.273438 276.078125 221.25 C 274.996094 223.222656 273.84375 225.160156 272.628906 227.058594 C 271.414062 228.953125 270.136719 230.808594 268.796875 232.621094 C 267.457031 234.433594 266.058594 236.195312 264.601562 237.914062 C 268.648438 240.203125 272.917969 241.9375 277.414062 243.113281 C 281.914062 244.289062 286.484375 244.871094 291.132812 244.859375 Z M 85.253906 244.859375 C 89.902344 244.875 94.476562 244.289062 98.972656 243.113281 C 103.46875 241.9375 107.742188 240.203125 111.789062 237.914062 C 110.332031 236.195312 108.929688 234.433594 107.589844 232.621094 C 106.253906 230.808594 104.976562 228.953125 103.761719 227.058594 C 102.542969 225.160156 101.394531 223.222656 100.308594 221.25 C 99.226562 219.273438 98.207031 217.265625 97.257812 215.222656 C 96.308594 213.179688 95.425781 211.109375 94.617188 209.007812 C 93.804688 206.902344 93.066406 204.777344 92.398438 202.625 C 91.730469 200.472656 91.132812 198.300781 90.613281 196.109375 C 90.089844 193.917969 89.640625 191.710938 89.269531 189.492188 C 88.894531 187.269531 88.597656 185.035156 88.371094 182.792969 C 88.148438 180.554688 88 178.304688 87.925781 176.054688 C 87.855469 173.800781 87.855469 171.550781 87.933594 169.300781 C 88.011719 167.046875 88.167969 164.800781 88.394531 162.558594 C 88.625 160.320312 88.929688 158.085938 89.308594 155.867188 C 89.6875 153.644531 90.140625 151.441406 90.667969 149.25 C 91.195312 147.058594 91.796875 144.890625 92.46875 142.738281 C 93.140625 140.589844 93.886719 138.464844 94.699219 136.363281 C 16.847656 126.089844 6.992188 241.539062 85.253906 244.859375 Z M 246.261719 272.921875 C 230.953125 272.984375 191.648438 272.878906 176.941406 272.921875 L 130.125 272.921875 C 128.222656 272.921875 126.324219 273.011719 124.429688 273.199219 C 122.53125 273.382812 120.652344 273.660156 118.785156 274.03125 C 116.917969 274.398438 115.070312 274.859375 113.25 275.410156 C 111.425781 275.960938 109.636719 276.601562 107.875 277.328125 C 106.117188 278.054688 104.394531 278.867188 102.714844 279.761719 C 101.035156 280.65625 99.402344 281.632812 97.820312 282.6875 C 96.234375 283.746094 94.707031 284.875 93.234375 286.082031 C 91.761719 287.289062 90.351562 288.5625 89.003906 289.910156 C 87.65625 291.253906 86.375 292.660156 85.167969 294.128906 C 83.957031 295.601562 82.820312 297.125 81.761719 298.707031 C 80.703125 300.289062 79.722656 301.917969 78.824219 303.597656 C 77.921875 305.277344 77.109375 306.992188 76.375 308.75 C 75.644531 310.507812 75.003906 312.296875 74.445312 314.121094 C 73.890625 315.941406 73.425781 317.785156 73.054688 319.652344 C 72.679688 321.519531 72.398438 323.398438 72.207031 325.292969 C 72.015625 327.1875 71.921875 329.085938 71.917969 330.992188 L 71.917969 360.164062 L 304.609375 360.164062 L 304.472656 330.992188 C 304.46875 329.085938 304.371094 327.1875 304.183594 325.292969 C 303.992188 323.398438 303.710938 321.519531 303.335938 319.652344 C 302.960938 317.785156 302.496094 315.941406 301.941406 314.121094 C 301.386719 312.296875 300.742188 310.507812 300.011719 308.75 C 299.28125 306.992188 298.464844 305.277344 297.566406 303.597656 C 296.667969 301.917969 295.6875 300.289062 294.628906 298.707031 C 293.566406 297.125 292.433594 295.601562 291.222656 294.128906 C 290.011719 292.660156 288.734375 291.253906 287.386719 289.910156 C 286.039062 288.5625 284.628906 287.289062 283.15625 286.082031 C 281.683594 284.875 280.152344 283.746094 278.570312 282.6875 C 276.984375 281.632812 275.351562 280.65625 273.671875 279.761719 C 271.992188 278.867188 270.273438 278.054688 268.515625 277.328125 C 266.753906 276.601562 264.964844 275.960938 263.140625 275.410156 C 261.320312 274.859375 259.472656 274.398438 257.605469 274.03125 C 255.738281 273.660156 253.855469 273.382812 251.960938 273.199219 C 250.066406 273.011719 248.167969 272.921875 246.265625 272.921875 Z M 373.792969 330.992188 C 373.785156 329.972656 373.75 328.957031 373.691406 327.9375 C 373.628906 326.921875 373.542969 325.910156 373.429688 324.898438 C 373.316406 323.882812 373.179688 322.875 373.011719 321.871094 C 372.847656 320.867188 372.65625 319.867188 372.4375 318.871094 C 372.222656 317.878906 371.976562 316.890625 371.710938 315.90625 C 371.441406 314.925781 371.148438 313.949219 370.828125 312.984375 C 370.507812 312.015625 370.164062 311.058594 369.792969 310.109375 C 369.425781 309.160156 369.03125 308.222656 368.613281 307.292969 C 368.195312 306.363281 367.753906 305.445312 367.289062 304.542969 C 366.824219 303.636719 366.332031 302.742188 365.820312 301.863281 C 365.308594 300.980469 364.773438 300.117188 364.21875 299.261719 C 363.660156 298.410156 363.082031 297.574219 362.480469 296.75 C 361.882812 295.929688 361.261719 295.121094 360.617188 294.332031 C 359.976562 293.542969 359.3125 292.769531 358.628906 292.015625 C 357.949219 291.257812 357.246094 290.519531 356.523438 289.800781 C 355.804688 289.082031 355.066406 288.382812 354.308594 287.703125 C 353.550781 287.019531 352.777344 286.359375 351.984375 285.71875 C 351.191406 285.078125 350.382812 284.460938 349.5625 283.863281 C 348.738281 283.261719 347.898438 282.6875 347.042969 282.132812 C 346.191406 281.578125 345.324219 281.042969 344.441406 280.535156 C 343.558594 280.023438 342.664062 279.539062 341.757812 279.074219 C 340.851562 278.609375 339.933594 278.171875 339.003906 277.753906 C 338.074219 277.339844 337.136719 276.949219 336.183594 276.582031 C 335.234375 276.214844 334.277344 275.871094 333.308594 275.554688 C 332.339844 275.238281 331.367188 274.945312 330.382812 274.679688 C 329.398438 274.414062 328.410156 274.175781 327.414062 273.957031 C 326.421875 273.742188 325.421875 273.554688 324.414062 273.390625 C 323.410156 273.230469 322.402344 273.09375 321.390625 272.980469 C 320.375 272.871094 319.363281 272.785156 318.34375 272.730469 C 317.328125 272.671875 316.3125 272.640625 315.292969 272.636719 C 314.273438 272.628906 313.257812 272.652344 312.238281 272.699219 C 311.222656 272.746094 310.207031 272.820312 309.195312 272.921875 C 312.851562 276.820312 316.109375 281.023438 318.972656 285.539062 C 321.832031 290.050781 324.246094 294.792969 326.207031 299.765625 C 328.167969 304.738281 329.648438 309.847656 330.640625 315.097656 C 331.632812 320.347656 332.125 325.648438 332.117188 330.992188 L 332.394531 360.164062 L 373.929688 360.164062 Z M 2.597656 330.992188 L 2.457031 360.164062 L 44.132812 360.164062 L 44.132812 330.992188 C 44.136719 325.644531 44.640625 320.34375 45.648438 315.089844 C 46.652344 309.835938 48.144531 304.722656 50.117188 299.753906 C 52.089844 294.78125 54.515625 290.042969 57.386719 285.53125 C 60.257812 281.015625 63.527344 276.816406 67.195312 272.921875 C 66.179688 272.820312 65.167969 272.746094 64.148438 272.699219 C 63.132812 272.652344 62.113281 272.628906 61.097656 272.636719 C 60.078125 272.640625 59.058594 272.671875 58.042969 272.730469 C 57.027344 272.785156 56.011719 272.871094 55 272.980469 C 53.988281 273.09375 52.980469 273.230469 51.972656 273.390625 C 50.96875 273.554688 49.96875 273.742188 48.972656 273.957031 C 47.976562 274.171875 46.988281 274.414062 46.007812 274.679688 C 45.023438 274.945312 44.046875 275.238281 43.082031 275.554688 C 42.113281 275.871094 41.152344 276.214844 40.203125 276.582031 C 39.253906 276.949219 38.3125 277.339844 37.382812 277.753906 C 36.457031 278.171875 35.535156 278.609375 34.628906 279.074219 C 33.722656 279.539062 32.828125 280.023438 31.949219 280.535156 C 31.066406 281.042969 30.199219 281.578125 29.34375 282.132812 C 28.492188 282.6875 27.652344 283.261719 26.828125 283.863281 C 26.003906 284.460938 25.195312 285.078125 24.40625 285.71875 C 23.613281 286.359375 22.839844 287.019531 22.082031 287.703125 C 21.324219 288.382812 20.585938 289.082031 19.863281 289.800781 C 19.144531 290.519531 18.441406 291.257812 17.757812 292.015625 C 17.078125 292.769531 16.414062 293.542969 15.773438 294.332031 C 15.128906 295.121094 14.507812 295.929688 13.90625 296.75 C 13.308594 297.574219 12.726562 298.410156 12.171875 299.261719 C 11.613281 300.117188 11.078125 300.980469 10.566406 301.863281 C 10.054688 302.742188 9.566406 303.636719 9.101562 304.539062 C 8.636719 305.445312 8.195312 306.363281 7.777344 307.292969 C 7.359375 308.21875 6.964844 309.160156 6.59375 310.109375 C 6.226562 311.058594 5.882812 312.015625 5.5625 312.980469 C 5.242188 313.949219 4.949219 314.921875 4.679688 315.90625 C 4.410156 316.886719 4.167969 317.875 3.949219 318.871094 C 3.734375 319.867188 3.542969 320.867188 3.375 321.871094 C 3.210938 322.875 3.070312 323.882812 2.957031 324.894531 C 2.84375 325.90625 2.757812 326.921875 2.699219 327.9375 C 2.636719 328.957031 2.605469 329.972656 2.597656 330.992188 Z M 2.597656 330.992188 " fill-opacity="1" fill-rule="nonzero"/></svg>