<svg xmlns="http://www.w3.org/2000/svg" xmlns:xlink="http://www.w3.org/1999/xlink" width="1920" zoomAndPan="magnify" viewBox="0 0 1440 809.999993" height="1080" preserveAspectRatio="xMidYMid meet" version="1.0"><defs><g/></defs><g fill="#ffffff" fill-opacity="1"><g transform="translate(15.170312, 596.473646)"><g><path d="M 291.734375 -11.390625 L 291.734375 -297.421875 C 291.734375 -306.347656 289.023438 -314.273438 283.609375 -321.203125 C 278.191406 -328.140625 270.738281 -331.609375 261.25 -331.609375 C 251.9375 -331.609375 244.617188 -328.285156 239.296875 -321.640625 C 233.984375 -314.992188 231.140625 -307.300781 230.765625 -298.5625 L 230.765625 -10.828125 C 230.765625 -7.785156 230.238281 -5.21875 229.1875 -3.125 C 228.144531 -1.039062 225.914062 0 222.5 0 L 162.390625 0 C 160.484375 0 158.722656 -1.085938 157.109375 -3.265625 C 155.492188 -5.453125 154.6875 -8.066406 154.6875 -11.109375 L 154.6875 -297.421875 C 154.6875 -306.347656 152.023438 -314.273438 146.703125 -321.203125 C 141.390625 -328.140625 133.988281 -331.609375 124.5 -331.609375 C 114.8125 -331.609375 107.304688 -328.140625 101.984375 -321.203125 C 96.671875 -314.273438 94.015625 -306.347656 94.015625 -297.421875 L 94.015625 -11.109375 C 94.015625 -8.066406 93.441406 -5.453125 92.296875 -3.265625 C 91.160156 -1.085938 88.882812 0 85.46875 0 L 25.359375 0 C 23.453125 0 21.738281 -1.085938 20.21875 -3.265625 C 18.707031 -5.453125 17.953125 -8.066406 17.953125 -11.109375 L 17.953125 -301.703125 C 17.953125 -315.367188 20.800781 -328.1875 26.5 -340.15625 C 32.195312 -352.125 39.9375 -362.617188 49.71875 -371.640625 C 59.5 -380.660156 70.796875 -387.734375 83.609375 -392.859375 C 96.429688 -397.984375 109.96875 -400.546875 124.21875 -400.546875 C 136.9375 -400.546875 149.179688 -398.457031 160.953125 -394.28125 C 172.734375 -390.101562 183.273438 -384.3125 192.578125 -376.90625 C 201.890625 -384.3125 212.429688 -390.101562 224.203125 -394.28125 C 235.984375 -398.457031 248.234375 -400.546875 260.953125 -400.546875 C 275.203125 -400.546875 288.734375 -397.984375 301.546875 -392.859375 C 314.367188 -387.734375 325.71875 -380.660156 335.59375 -371.640625 C 345.46875 -362.617188 353.253906 -352.125 358.953125 -340.15625 C 364.648438 -328.1875 367.5 -315.367188 367.5 -301.703125 L 367.5 -11.390625 C 367.5 -8.546875 366.832031 -5.9375 365.5 -3.5625 C 364.175781 -1.1875 361.898438 0 358.671875 0 L 300.84375 0 C 297.800781 0 295.519531 -1.140625 294 -3.421875 C 292.488281 -5.703125 291.734375 -8.359375 291.734375 -11.390625 Z M 291.734375 -11.390625 "/></g></g></g><g fill="#ffffff" fill-opacity="1"><g transform="translate(430.968619, 596.473646)"><g><path d="M 137.890625 -107.40625 L 137.890625 -279.1875 C 137.890625 -283.75 139.3125 -286.976562 142.15625 -288.875 C 145.007812 -290.78125 147.195312 -291.734375 148.71875 -291.734375 L 201.421875 -291.734375 C 203.691406 -291.734375 205.679688 -290.925781 207.390625 -289.3125 C 209.109375 -287.695312 209.96875 -285.273438 209.96875 -282.046875 L 209.96875 -9.6875 C 209.96875 9.875 206.070312 27.015625 198.28125 41.734375 C 190.5 56.453125 179.007812 67.894531 163.8125 76.0625 C 148.613281 84.226562 129.90625 88.3125 107.6875 88.3125 C 90.21875 88.3125 74.40625 86.03125 60.25 81.46875 C 46.101562 76.914062 34.566406 71.316406 25.640625 64.671875 C 22.984375 62.960938 21.273438 60.726562 20.515625 57.96875 C 19.753906 55.21875 20.035156 52.609375 21.359375 50.140625 L 37.03125 15.671875 C 38.738281 12.816406 40.734375 11.390625 43.015625 11.390625 C 45.109375 11.390625 47.390625 12.34375 49.859375 14.25 C 55.742188 18.425781 63.148438 22.03125 72.078125 25.0625 C 81.003906 28.101562 89.265625 29.625 96.859375 29.625 C 103.890625 29.625 110.535156 28.390625 116.796875 25.921875 C 123.066406 23.453125 128.148438 19.222656 132.046875 13.234375 C 135.941406 7.253906 137.890625 -0.953125 137.890625 -11.390625 L 137.890625 -27.34375 C 131.046875 -23.351562 124.015625 -20.265625 116.796875 -18.078125 C 109.585938 -15.898438 102.375 -14.8125 95.15625 -14.8125 C 79.769531 -14.8125 66 -18.421875 53.84375 -25.640625 C 41.6875 -32.859375 32.140625 -43.066406 25.203125 -56.265625 C 18.273438 -69.460938 14.8125 -84.988281 14.8125 -102.84375 L 14.8125 -282.046875 C 14.8125 -285.273438 15.617188 -287.695312 17.234375 -289.3125 C 18.847656 -290.925781 20.890625 -291.734375 23.359375 -291.734375 L 78.625 -291.734375 C 81.09375 -291.734375 83.085938 -290.925781 84.609375 -289.3125 C 86.128906 -287.695312 86.890625 -285.273438 86.890625 -282.046875 L 86.890625 -103.421875 C 86.890625 -96.765625 89.210938 -90.875 93.859375 -85.75 C 98.515625 -80.625 104.738281 -78.0625 112.53125 -78.0625 C 117.851562 -78.0625 122.363281 -79.53125 126.0625 -82.46875 C 129.769531 -85.414062 132.664062 -89.164062 134.75 -93.71875 C 136.84375 -98.28125 137.890625 -102.84375 137.890625 -107.40625 Z M 137.890625 -107.40625 "/></g></g></g><g fill="#ffffff" fill-opacity="1"><g transform="translate(688.082606, 596.473646)"><g><path d="M 143.296875 -280.046875 L 143.296875 -296 C 143.296875 -305.875 140.734375 -314.320312 135.609375 -321.34375 C 130.484375 -328.375 122.789062 -331.890625 112.53125 -331.890625 C 107.78125 -331.890625 103.03125 -330.703125 98.28125 -328.328125 C 93.539062 -325.960938 89.601562 -322.164062 86.46875 -316.9375 C 83.332031 -311.71875 81.765625 -304.738281 81.765625 -296 C 81.765625 -287.070312 83.519531 -279.425781 87.03125 -273.0625 C 90.539062 -266.695312 95.476562 -260.757812 101.84375 -255.25 C 108.207031 -249.75 115.566406 -243.675781 123.921875 -237.03125 C 137.222656 -226.769531 149.664062 -216.796875 161.25 -207.109375 C 172.832031 -197.421875 182.988281 -187.164062 191.71875 -176.34375 C 200.457031 -165.519531 207.296875 -153.363281 212.234375 -139.875 C 217.179688 -126.394531 219.65625 -110.632812 219.65625 -92.59375 C 219.65625 -79.289062 217.132812 -66.703125 212.09375 -54.828125 C 207.0625 -42.960938 199.941406 -32.425781 190.734375 -23.21875 C 181.523438 -14.007812 170.460938 -6.789062 157.546875 -1.5625 C 144.628906 3.65625 130.289062 6.265625 114.53125 6.265625 C 97.4375 6.265625 82.429688 3.460938 69.515625 -2.140625 C 56.597656 -7.742188 45.816406 -15.289062 37.171875 -24.78125 C 28.535156 -34.28125 22.078125 -45.203125 17.796875 -57.546875 C 13.523438 -69.890625 11.390625 -82.707031 11.390625 -96 L 11.390625 -111.109375 C 11.390625 -116.046875 12.003906 -119.554688 13.234375 -121.640625 C 14.472656 -123.734375 17.085938 -124.78125 21.078125 -124.78125 L 72.9375 -124.78125 C 76.925781 -124.78125 79.535156 -123.925781 80.765625 -122.21875 C 82.003906 -120.507812 82.625 -117.46875 82.625 -113.09375 L 82.625 -100.28125 C 82.625 -90.78125 84.332031 -83.273438 87.75 -77.765625 C 91.164062 -72.265625 95.390625 -68.375 100.421875 -66.09375 C 105.453125 -63.8125 110.34375 -62.671875 115.09375 -62.671875 C 124.019531 -62.671875 131.664062 -65.707031 138.03125 -71.78125 C 144.394531 -77.863281 147.578125 -86.128906 147.578125 -96.578125 C 147.578125 -105.878906 145.863281 -113.898438 142.4375 -120.640625 C 139.019531 -127.390625 133.65625 -134.179688 126.34375 -141.015625 C 119.03125 -147.859375 109.488281 -156.023438 97.71875 -165.515625 C 82.90625 -177.671875 70.035156 -188.398438 59.109375 -197.703125 C 48.191406 -207.015625 39.21875 -216.273438 32.1875 -225.484375 C 25.164062 -234.703125 19.941406 -245.007812 16.515625 -256.40625 C 13.097656 -267.800781 11.390625 -281.664062 11.390625 -298 C 11.390625 -312.8125 13.570312 -325.867188 17.9375 -337.171875 C 22.3125 -348.472656 28.15625 -358.109375 35.46875 -366.078125 C 42.78125 -374.054688 50.898438 -380.5625 59.828125 -385.59375 C 68.753906 -390.625 77.773438 -394.328125 86.890625 -396.703125 C 96.003906 -399.078125 104.550781 -400.265625 112.53125 -400.265625 C 132.28125 -400.265625 149.75 -395.988281 164.9375 -387.4375 C 180.132812 -378.894531 192.054688 -366.835938 200.703125 -351.265625 C 209.347656 -335.691406 213.671875 -317.363281 213.671875 -296.28125 L 213.671875 -280.046875 C 213.671875 -276.054688 212.957031 -273.253906 211.53125 -271.640625 C 210.101562 -270.023438 207.113281 -269.21875 202.5625 -269.21875 L 151.5625 -269.21875 C 147.945312 -269.21875 145.664062 -270.023438 144.71875 -271.640625 C 143.769531 -273.253906 143.296875 -276.054688 143.296875 -280.046875 Z M 143.296875 -280.046875 "/></g></g></g><g fill="#ffffff" fill-opacity="1"><g transform="translate(946.336117, 596.473646)"><g><path d="M 90.03125 -297.140625 L 90.03125 -96.578125 C 90.03125 -87.648438 92.640625 -79.71875 97.859375 -72.78125 C 103.078125 -65.851562 110.53125 -62.390625 120.21875 -62.390625 C 130.09375 -62.390625 137.738281 -65.570312 143.15625 -71.9375 C 148.570312 -78.300781 151.28125 -85.945312 151.28125 -94.875 L 151.28125 -297.140625 C 151.28125 -306.253906 148.570312 -314.320312 143.15625 -321.34375 C 137.738281 -328.375 130.285156 -331.890625 120.796875 -331.890625 C 111.109375 -331.890625 103.554688 -328.375 98.140625 -321.34375 C 92.734375 -314.320312 90.03125 -306.253906 90.03125 -297.140625 Z M 216.234375 51 L 216.234375 92.296875 C 216.234375 94.765625 215.566406 96.378906 214.234375 97.140625 C 212.910156 97.898438 211.488281 98.28125 209.96875 98.28125 L 188.3125 98.28125 C 168.363281 98.28125 150.742188 94.148438 135.453125 85.890625 C 120.171875 77.628906 108.207031 66.234375 99.5625 51.703125 C 90.925781 37.171875 86.414062 20.410156 86.03125 1.421875 C 72.363281 -2.566406 60.113281 -8.925781 49.28125 -17.65625 C 38.457031 -26.394531 29.910156 -37.078125 23.640625 -49.703125 C 17.378906 -62.335938 14.25 -76.632812 14.25 -92.59375 L 14.25 -301.40625 C 14.25 -316.789062 17.046875 -330.609375 22.640625 -342.859375 C 28.242188 -355.109375 35.984375 -365.503906 45.859375 -374.046875 C 55.742188 -382.597656 67.046875 -389.101562 79.765625 -393.5625 C 92.492188 -398.03125 105.976562 -400.265625 120.21875 -400.265625 C 134.46875 -400.265625 148.046875 -398.03125 160.953125 -393.5625 C 173.867188 -389.101562 185.265625 -382.597656 195.140625 -374.046875 C 205.023438 -365.503906 212.816406 -355.15625 218.515625 -343 C 224.210938 -330.851562 227.0625 -316.988281 227.0625 -301.40625 L 227.0625 -92.59375 C 227.0625 -75.5 223.59375 -60.347656 216.65625 -47.140625 C 209.726562 -33.941406 200.328125 -23.117188 188.453125 -14.671875 C 176.585938 -6.222656 163.242188 -0.285156 148.421875 3.140625 L 148.421875 7.40625 C 148.421875 17.664062 151.835938 26.546875 158.671875 34.046875 C 165.515625 41.546875 174.828125 45.296875 186.609375 45.296875 L 209.96875 45.296875 C 211.488281 45.296875 212.910156 45.722656 214.234375 46.578125 C 215.566406 47.429688 216.234375 48.90625 216.234375 51 Z M 216.234375 51 "/></g></g></g><g fill="#ffffff" fill-opacity="1"><g transform="translate(1217.979474, 596.473646)"><g><path d="M 192.578125 0 L 30.203125 0 C 23.742188 0 20.515625 -3.609375 20.515625 -10.828125 L 20.515625 -383.171875 C 20.515625 -390.578125 23.644531 -394.28125 29.90625 -394.28125 L 86.890625 -394.28125 C 93.160156 -394.28125 96.296875 -390.578125 96.296875 -383.171875 L 96.296875 -68.65625 L 192.578125 -68.65625 C 197.898438 -68.65625 200.5625 -65.425781 200.5625 -58.96875 L 200.5625 -10.25 C 200.5625 -3.414062 197.898438 0 192.578125 0 Z M 192.578125 0 "/></g></g></g></svg>