<svg xmlns="http://www.w3.org/2000/svg" xmlns:xlink="http://www.w3.org/1999/xlink" width="1920" zoomAndPan="magnify" viewBox="0 0 1440 809.999993" height="1080" preserveAspectRatio="xMidYMid meet" version="1.0"><defs><g/></defs><g fill="#ffffff" fill-opacity="1"><g transform="translate(250.760384, 630.584766)"><g><path d="M 185.609375 -235.953125 L 185.609375 -342.359375 C 185.609375 -354.441406 182.082031 -364.226562 175.03125 -371.71875 C 167.988281 -379.21875 158.648438 -382.96875 147.015625 -382.96875 L 113.453125 -382.96875 L 113.453125 -196.015625 L 147.34375 -196.015625 C 158.976562 -196.015625 168.265625 -199.816406 175.203125 -207.421875 C 182.140625 -215.035156 185.609375 -224.546875 185.609375 -235.953125 Z M 24.171875 -12.75 L 24.171875 -451.453125 C 24.171875 -460.171875 27.972656 -464.53125 35.578125 -464.53125 L 154.0625 -464.53125 C 171.289062 -464.53125 187.289062 -461.453125 202.0625 -455.296875 C 216.832031 -449.148438 229.695312 -440.59375 240.65625 -429.625 C 251.625 -418.664062 260.128906 -405.859375 266.171875 -391.203125 C 272.210938 -376.546875 275.234375 -360.820312 275.234375 -344.03125 L 275.234375 -236.625 C 275.234375 -219.84375 272.210938 -204.066406 266.171875 -189.296875 C 260.128906 -174.535156 251.625 -161.613281 240.65625 -150.53125 C 229.695312 -139.457031 216.832031 -130.785156 202.0625 -124.515625 C 187.289062 -118.253906 171.289062 -115.125 154.0625 -115.125 L 113.453125 -115.125 L 113.453125 -12.75 C 113.453125 -4.25 109.757812 0 102.375 0 L 35.578125 0 C 27.972656 0 24.171875 -4.25 24.171875 -12.75 Z M 24.171875 -12.75 "/></g></g></g><g fill="#ffffff" fill-opacity="1"><g transform="translate(569.454759, 630.584766)"><g><path d="M 198.703125 -464.53125 L 265.5 -464.53125 C 268.40625 -464.53125 270.976562 -463.632812 273.21875 -461.84375 C 275.457031 -460.0625 276.578125 -456.707031 276.578125 -451.78125 L 276.578125 -12.75 C 276.578125 -4.25 272.546875 0 264.484375 0 L 198.703125 0 C 191.097656 0 187.296875 -4.25 187.296875 -12.75 L 187.296875 -197.359375 L 113.453125 -197.359375 L 113.453125 -12.75 C 113.453125 -4.25 109.757812 0 102.375 0 L 35.25 0 C 27.863281 0 24.171875 -4.25 24.171875 -12.75 L 24.171875 -451.453125 C 24.171875 -460.171875 27.863281 -464.53125 35.25 -464.53125 L 102.375 -464.53125 C 109.757812 -464.53125 113.453125 -460.171875 113.453125 -451.453125 L 113.453125 -278.25 L 187.296875 -278.25 L 187.296875 -451.453125 C 187.296875 -455.023438 188.242188 -458.097656 190.140625 -460.671875 C 192.046875 -463.242188 194.898438 -464.53125 198.703125 -464.53125 Z M 198.703125 -464.53125 "/></g></g></g><g fill="#ffffff" fill-opacity="1"><g transform="translate(906.273952, 630.584766)"><g><path d="M 185.609375 -235.953125 L 185.609375 -342.359375 C 185.609375 -354.441406 182.082031 -364.226562 175.03125 -371.71875 C 167.988281 -379.21875 158.648438 -382.96875 147.015625 -382.96875 L 113.453125 -382.96875 L 113.453125 -196.015625 L 147.34375 -196.015625 C 158.976562 -196.015625 168.265625 -199.816406 175.203125 -207.421875 C 182.140625 -215.035156 185.609375 -224.546875 185.609375 -235.953125 Z M 24.171875 -12.75 L 24.171875 -451.453125 C 24.171875 -460.171875 27.972656 -464.53125 35.578125 -464.53125 L 154.0625 -464.53125 C 171.289062 -464.53125 187.289062 -461.453125 202.0625 -455.296875 C 216.832031 -449.148438 229.695312 -440.59375 240.65625 -429.625 C 251.625 -418.664062 260.128906 -405.859375 266.171875 -391.203125 C 272.210938 -376.546875 275.234375 -360.820312 275.234375 -344.03125 L 275.234375 -236.625 C 275.234375 -219.84375 272.210938 -204.066406 266.171875 -189.296875 C 260.128906 -174.535156 251.625 -161.613281 240.65625 -150.53125 C 229.695312 -139.457031 216.832031 -130.785156 202.0625 -124.515625 C 187.289062 -118.253906 171.289062 -115.125 154.0625 -115.125 L 113.453125 -115.125 L 113.453125 -12.75 C 113.453125 -4.25 109.757812 0 102.375 0 L 35.578125 0 C 27.972656 0 24.171875 -4.25 24.171875 -12.75 Z M 24.171875 -12.75 "/></g></g></g></svg>