<svg xmlns="http://www.w3.org/2000/svg" xmlns:xlink="http://www.w3.org/1999/xlink" width="1920" zoomAndPan="magnify" viewBox="0 0 1440 809.999993" height="1080" preserveAspectRatio="xMidYMid meet" version="1.0"><defs><g/></defs><g fill="#ffffff" fill-opacity="1"><g transform="translate(107.997291, 567.10897)"><g><path d="M 133.390625 -169.5625 L 133.390625 -246.03125 C 133.390625 -254.707031 130.851562 -261.738281 125.78125 -267.125 C 120.71875 -272.519531 114.003906 -275.21875 105.640625 -275.21875 L 81.53125 -275.21875 L 81.53125 -140.859375 L 105.890625 -140.859375 C 114.253906 -140.859375 120.925781 -143.59375 125.90625 -149.0625 C 130.894531 -154.53125 133.390625 -161.363281 133.390625 -169.5625 Z M 17.359375 -9.171875 L 17.359375 -324.421875 C 17.359375 -330.691406 20.09375 -333.828125 25.5625 -333.828125 L 110.71875 -333.828125 C 123.09375 -333.828125 134.585938 -331.613281 145.203125 -327.1875 C 155.816406 -322.769531 165.0625 -316.617188 172.9375 -308.734375 C 180.820312 -300.859375 186.929688 -291.65625 191.265625 -281.125 C 195.609375 -270.59375 197.78125 -259.296875 197.78125 -247.234375 L 197.78125 -170.046875 C 197.78125 -157.984375 195.609375 -146.644531 191.265625 -136.03125 C 186.929688 -125.425781 180.820312 -116.140625 172.9375 -108.171875 C 165.0625 -100.210938 155.816406 -93.984375 145.203125 -89.484375 C 134.585938 -84.984375 123.09375 -82.734375 110.71875 -82.734375 L 81.53125 -82.734375 L 81.53125 -9.171875 C 81.53125 -3.054688 78.875 0 73.5625 0 L 25.5625 0 C 20.09375 0 17.359375 -3.054688 17.359375 -9.171875 Z M 17.359375 -9.171875 "/></g></g></g><g fill="#ffffff" fill-opacity="1"><g transform="translate(337.016288, 567.10897)"><g><path d="M 116.75 -90.9375 L 116.75 -236.375 C 116.75 -240.238281 117.953125 -242.972656 120.359375 -244.578125 C 122.773438 -246.191406 124.625 -247 125.90625 -247 L 170.53125 -247 C 172.457031 -247 174.144531 -246.3125 175.59375 -244.9375 C 177.039062 -243.570312 177.765625 -241.523438 177.765625 -238.796875 L 177.765625 -8.203125 C 177.765625 8.359375 174.46875 22.867188 167.875 35.328125 C 161.28125 47.796875 151.550781 57.484375 138.6875 64.390625 C 125.820312 71.304688 109.984375 74.765625 91.171875 74.765625 C 76.378906 74.765625 62.992188 72.832031 51.015625 68.96875 C 39.035156 65.113281 29.265625 60.375 21.703125 54.75 C 19.453125 53.300781 18.003906 51.410156 17.359375 49.078125 C 16.722656 46.753906 16.96875 44.546875 18.09375 42.453125 L 31.359375 13.265625 C 32.804688 10.847656 34.492188 9.640625 36.421875 9.640625 C 38.191406 9.640625 40.117188 10.445312 42.203125 12.0625 C 47.191406 15.59375 53.460938 18.644531 61.015625 21.21875 C 68.578125 23.789062 75.578125 25.078125 82.015625 25.078125 C 87.960938 25.078125 93.585938 24.03125 98.890625 21.9375 C 104.203125 19.851562 108.503906 16.28125 111.796875 11.21875 C 115.097656 6.15625 116.75 -0.796875 116.75 -9.640625 L 116.75 -23.15625 C 110.957031 -19.78125 105.003906 -17.164062 98.890625 -15.3125 C 92.785156 -13.46875 86.675781 -12.546875 80.5625 -12.546875 C 67.539062 -12.546875 55.882812 -15.597656 45.59375 -21.703125 C 35.300781 -27.816406 27.21875 -36.460938 21.34375 -47.640625 C 15.476562 -58.816406 12.546875 -71.960938 12.546875 -87.078125 L 12.546875 -238.796875 C 12.546875 -241.523438 13.226562 -243.570312 14.59375 -244.9375 C 15.957031 -246.3125 17.6875 -247 19.78125 -247 L 66.578125 -247 C 68.660156 -247 70.34375 -246.3125 71.625 -244.9375 C 72.914062 -243.570312 73.5625 -241.523438 73.5625 -238.796875 L 73.5625 -87.5625 C 73.5625 -81.925781 75.53125 -76.9375 79.46875 -72.59375 C 83.414062 -68.257812 88.6875 -66.09375 95.28125 -66.09375 C 99.78125 -66.09375 103.597656 -67.335938 106.734375 -69.828125 C 109.867188 -72.316406 112.320312 -75.488281 114.09375 -79.34375 C 115.863281 -83.207031 116.75 -87.070312 116.75 -90.9375 Z M 116.75 -90.9375 "/></g></g></g><g fill="#ffffff" fill-opacity="1"><g transform="translate(554.698892, 567.10897)"><g><path d="M 105.40625 0 L 90.203125 0 C 80.878906 0 72.15625 -1.125 64.03125 -3.375 C 55.914062 -5.625 48.800781 -9.441406 42.6875 -14.828125 C 36.582031 -20.222656 31.800781 -27.582031 28.34375 -36.90625 C 24.882812 -46.226562 23.15625 -57.96875 23.15625 -72.125 L 23.15625 -193.203125 L 8.921875 -193.203125 C 7.640625 -193.203125 6.113281 -193.960938 4.34375 -195.484375 C 2.570312 -197.015625 1.6875 -199.226562 1.6875 -202.125 L 1.6875 -237.828125 C 1.6875 -241.046875 2.53125 -243.414062 4.21875 -244.9375 C 5.90625 -246.46875 7.472656 -247.234375 8.921875 -247.234375 L 23.15625 -247.234375 L 23.15625 -284.140625 C 23.15625 -286.867188 23.632812 -289 24.59375 -290.53125 C 25.5625 -292.0625 27.332031 -293.144531 29.90625 -293.78125 L 75.015625 -307.046875 C 75.492188 -307.210938 76.21875 -307.296875 77.1875 -307.296875 C 82.007812 -307.296875 84.421875 -304.640625 84.421875 -299.328125 L 84.421875 -247.234375 L 108.78125 -247.234375 C 113.28125 -247.234375 115.53125 -244.257812 115.53125 -238.3125 L 115.53125 -202.125 C 115.53125 -199.550781 114.847656 -197.421875 113.484375 -195.734375 C 112.117188 -194.046875 110.3125 -193.203125 108.0625 -193.203125 L 84.421875 -193.203125 L 84.421875 -75.734375 C 84.421875 -68.984375 86.023438 -63.796875 89.234375 -60.171875 C 92.453125 -56.554688 98.484375 -54.75 107.328125 -54.75 L 111.4375 -54.75 C 114.976562 -54.75 117.066406 -53.703125 117.703125 -51.609375 C 118.347656 -49.523438 118.671875 -47.597656 118.671875 -45.828125 L 118.671875 -7.71875 C 118.671875 -6.113281 118.066406 -4.425781 116.859375 -2.65625 C 115.648438 -0.882812 111.832031 0 105.40625 0 Z M 105.40625 0 "/></g></g></g><g fill="#ffffff" fill-opacity="1"><g transform="translate(707.016339, 567.10897)"><g><path d="M 179.9375 -176.796875 L 179.9375 -8.203125 C 179.9375 -5.628906 179.210938 -3.617188 177.765625 -2.171875 C 176.316406 -0.722656 174.628906 0 172.703125 0 L 125.90625 0 C 123.8125 0 122.082031 -0.722656 120.71875 -2.171875 C 119.351562 -3.617188 118.671875 -5.628906 118.671875 -8.203125 L 118.671875 -176.5625 C 118.671875 -182.1875 116.703125 -187.171875 112.765625 -191.515625 C 108.828125 -195.859375 103.722656 -198.03125 97.453125 -198.03125 C 92.941406 -198.03125 89.117188 -196.863281 85.984375 -194.53125 C 82.847656 -192.195312 80.4375 -189.21875 78.75 -185.59375 C 77.0625 -181.976562 76.054688 -178.242188 75.734375 -174.390625 L 75.734375 -8.921875 C 75.734375 -6.828125 74.925781 -4.816406 73.3125 -2.890625 C 71.707031 -0.960938 68.898438 0 64.890625 0 L 22.671875 0 C 17.203125 0 14.46875 -2.570312 14.46875 -7.71875 L 14.46875 -325.625 C 14.46875 -331.09375 17.203125 -333.828125 22.671875 -333.828125 L 67.78125 -333.828125 C 73.082031 -333.828125 75.734375 -331.09375 75.734375 -325.625 L 75.734375 -240.234375 C 81.367188 -243.773438 87.359375 -246.550781 93.703125 -248.5625 C 100.054688 -250.570312 106.609375 -251.578125 113.359375 -251.578125 C 125.898438 -251.578125 137.195312 -248.476562 147.25 -242.28125 C 157.300781 -236.09375 165.257812 -227.410156 171.125 -216.234375 C 177 -205.054688 179.9375 -191.910156 179.9375 -176.796875 Z M 179.9375 -176.796875 "/></g></g></g><g fill="#ffffff" fill-opacity="1"><g transform="translate(926.869776, 567.10897)"><g><path d="M 175.359375 -178.484375 L 175.359375 -68.75 C 175.359375 -57.96875 173.226562 -48.070312 168.96875 -39.0625 C 164.707031 -30.0625 158.796875 -22.304688 151.234375 -15.796875 C 143.671875 -9.285156 134.863281 -4.257812 124.8125 -0.71875 C 114.769531 2.8125 104.039062 4.578125 92.625 4.578125 C 81.207031 4.578125 70.515625 2.8125 60.546875 -0.71875 C 50.578125 -4.257812 41.8125 -9.285156 34.25 -15.796875 C 26.695312 -22.304688 20.785156 -30.0625 16.515625 -39.0625 C 12.253906 -48.070312 10.125 -57.96875 10.125 -68.75 L 10.125 -178.484375 C 10.125 -188.617188 12.253906 -198.109375 16.515625 -206.953125 C 20.785156 -215.796875 26.65625 -223.550781 34.125 -230.21875 C 41.601562 -236.894531 50.328125 -242.125 60.296875 -245.90625 C 70.265625 -249.6875 80.878906 -251.578125 92.140625 -251.578125 C 103.710938 -251.578125 114.523438 -249.804688 124.578125 -246.265625 C 134.628906 -242.734375 143.472656 -237.707031 151.109375 -231.1875 C 158.753906 -224.675781 164.707031 -216.957031 168.96875 -208.03125 C 173.226562 -199.113281 175.359375 -189.265625 175.359375 -178.484375 Z M 92.859375 -198.03125 C 86.265625 -198.03125 81 -195.816406 77.0625 -191.390625 C 73.125 -186.972656 71.15625 -182.109375 71.15625 -176.796875 L 71.15625 -70.4375 C 71.15625 -64.96875 73.164062 -60.019531 77.1875 -55.59375 C 81.207031 -51.175781 86.429688 -48.96875 92.859375 -48.96875 C 99.453125 -48.96875 104.675781 -51.175781 108.53125 -55.59375 C 112.394531 -60.019531 114.328125 -64.96875 114.328125 -70.4375 L 114.328125 -176.5625 C 114.328125 -182.03125 112.394531 -186.972656 108.53125 -191.390625 C 104.675781 -195.816406 99.453125 -198.03125 92.859375 -198.03125 Z M 92.859375 -198.03125 "/></g></g></g><g fill="#ffffff" fill-opacity="1"><g transform="translate(1138.039951, 567.10897)"><g><path d="M 172.21875 0 L 125.671875 0 C 123.578125 0 121.847656 -0.722656 120.484375 -2.171875 C 119.117188 -3.617188 118.4375 -5.628906 118.4375 -8.203125 L 118.4375 -177.28125 C 118.113281 -182.90625 116.101562 -187.769531 112.40625 -191.875 C 108.707031 -195.976562 103.5625 -198.03125 96.96875 -198.03125 C 90.375 -198.03125 85.1875 -195.9375 81.40625 -191.75 C 77.625 -187.570312 75.570312 -182.671875 75.25 -177.046875 L 75.25 -8.4375 C 75.25 -2.8125 73 0 68.5 0 L 21.46875 0 C 19.375 0 17.644531 -0.722656 16.28125 -2.171875 C 14.914062 -3.617188 14.234375 -5.707031 14.234375 -8.4375 L 14.234375 -176.796875 C 14.234375 -186.609375 16.203125 -195.972656 20.140625 -204.890625 C 24.078125 -213.816406 29.625 -221.78125 36.78125 -228.78125 C 43.9375 -235.78125 52.457031 -241.328125 62.34375 -245.421875 C 72.238281 -249.523438 83.132812 -251.578125 95.03125 -251.578125 C 113.039062 -251.578125 128.316406 -248.195312 140.859375 -241.4375 C 153.398438 -234.6875 162.96875 -225.679688 169.5625 -214.421875 C 176.15625 -203.171875 179.453125 -190.710938 179.453125 -177.046875 L 179.453125 -8.203125 C 179.453125 -5.628906 178.769531 -3.617188 177.40625 -2.171875 C 176.039062 -0.722656 174.3125 0 172.21875 0 Z M 172.21875 0 "/></g></g></g></svg>