<svg xmlns="http://www.w3.org/2000/svg" xmlns:xlink="http://www.w3.org/1999/xlink" width="1920" zoomAndPan="magnify" viewBox="0 0 1440 809.999993" height="1080" preserveAspectRatio="xMidYMid meet" version="1.0"><defs><g/></defs><g fill="#ffffff" fill-opacity="1"><g transform="translate(22.844472, 517.469483)"><g><path d="M 56.5625 -40.328125 L 118.640625 -40.328125 C 119.984375 -40.328125 121.128906 -39.851562 122.078125 -38.90625 C 123.023438 -37.957031 123.5 -36.535156 123.5 -34.640625 L 123.5 -5.859375 C 123.5 -3.847656 123.023438 -2.367188 122.078125 -1.421875 C 121.128906 -0.472656 119.984375 0 118.640625 0 L 17.734375 0 C 13.941406 0 12.046875 -2.117188 12.046875 -6.359375 L 12.046875 -225.078125 C 12.046875 -229.429688 13.941406 -231.609375 17.734375 -231.609375 L 117.8125 -231.609375 C 120.9375 -231.609375 122.5 -229.539062 122.5 -225.40625 L 122.5 -196.96875 C 122.5 -192.945312 120.9375 -190.9375 117.8125 -190.9375 L 56.5625 -190.9375 L 56.5625 -137.21875 L 105.421875 -137.21875 C 106.878906 -137.21875 108.132812 -136.769531 109.1875 -135.875 C 110.25 -134.988281 110.78125 -133.484375 110.78125 -131.359375 L 110.78125 -102.75 C 110.78125 -100.738281 110.273438 -99.285156 109.265625 -98.390625 C 108.265625 -97.503906 106.984375 -97.0625 105.421875 -97.0625 L 56.5625 -97.0625 Z M 56.5625 -40.328125 "/></g></g></g><g fill="#ffffff" fill-opacity="1"><g transform="translate(168.013436, 517.469483)"><g><path d="M 76.46875 -31.796875 L 76.46875 -5.359375 C 76.46875 -4.242188 76.019531 -3.070312 75.125 -1.84375 C 74.238281 -0.613281 71.566406 0 67.109375 0 L 56.5625 0 C 50.195312 0 44.195312 -0.78125 38.5625 -2.34375 C 32.9375 -3.90625 27.972656 -6.550781 23.671875 -10.28125 C 19.378906 -14.019531 16.035156 -19.125 13.640625 -25.59375 C 11.242188 -32.070312 10.046875 -40.21875 10.046875 -50.03125 L 10.046875 -225.90625 C 10.046875 -229.707031 11.941406 -231.609375 15.734375 -231.609375 L 47.015625 -231.609375 C 50.703125 -231.609375 52.546875 -229.707031 52.546875 -225.90625 L 52.546875 -52.546875 C 52.546875 -47.859375 53.660156 -44.257812 55.890625 -41.75 C 58.117188 -39.238281 62.300781 -37.984375 68.4375 -37.984375 L 71.28125 -37.984375 C 73.851562 -37.984375 75.359375 -37.257812 75.796875 -35.8125 C 76.242188 -34.363281 76.46875 -33.023438 76.46875 -31.796875 Z M 76.46875 -31.796875 "/></g></g></g><g fill="#ffffff" fill-opacity="1"><g transform="translate(266.996021, 517.469483)"><g><path d="M 65.09375 -138.21875 C 60.519531 -138.21875 56.78125 -136.710938 53.875 -133.703125 C 50.976562 -130.691406 49.53125 -127.289062 49.53125 -123.5 L 49.53125 -104.75 L 79.984375 -104.75 L 79.984375 -123.328125 C 79.984375 -127.234375 78.644531 -130.691406 75.96875 -133.703125 C 73.289062 -136.710938 69.664062 -138.21875 65.09375 -138.21875 Z M 118.140625 -52.546875 L 118.140625 -47.6875 C 118.140625 -38.320312 115.878906 -29.789062 111.359375 -22.09375 C 106.847656 -14.394531 100.519531 -8.257812 92.375 -3.6875 C 84.226562 0.882812 74.800781 3.171875 64.09375 3.171875 C 56.28125 3.171875 48.914062 1.863281 42 -0.75 C 35.082031 -3.375 29.03125 -7 23.84375 -11.625 C 18.65625 -16.257812 14.582031 -21.671875 11.625 -27.859375 C 8.675781 -34.054688 7.203125 -40.664062 7.203125 -47.6875 L 7.203125 -123.828125 C 7.203125 -130.859375 8.675781 -137.410156 11.625 -143.484375 C 14.582031 -149.566406 18.65625 -154.953125 23.84375 -159.640625 C 29.03125 -164.328125 35.082031 -167.976562 42 -170.59375 C 48.914062 -173.21875 56.28125 -174.53125 64.09375 -174.53125 C 72.125 -174.53125 79.457031 -173.21875 86.09375 -170.59375 C 92.738281 -167.976562 98.484375 -164.328125 103.328125 -159.640625 C 108.179688 -154.953125 111.921875 -149.566406 114.546875 -143.484375 C 117.171875 -137.410156 118.484375 -130.859375 118.484375 -123.828125 L 118.484375 -82.328125 C 118.484375 -80.429688 117.867188 -78.925781 116.640625 -77.8125 C 115.410156 -76.695312 113.847656 -76.140625 111.953125 -76.140625 L 49.53125 -76.140625 L 49.53125 -47.6875 C 49.53125 -44.007812 50.976562 -40.632812 53.875 -37.5625 C 56.78125 -34.5 60.519531 -32.96875 65.09375 -32.96875 C 69.894531 -32.96875 73.578125 -34.554688 76.140625 -37.734375 C 78.703125 -40.910156 79.984375 -44.34375 79.984375 -48.03125 L 79.984375 -52.875 C 79.984375 -53.882812 80.375 -54.804688 81.15625 -55.640625 C 81.9375 -56.472656 83.109375 -56.890625 84.671875 -56.890625 L 113.796875 -56.890625 C 115.128906 -56.890625 116.1875 -56.582031 116.96875 -55.96875 C 117.75 -55.363281 118.140625 -54.222656 118.140625 -52.546875 Z M 118.140625 -52.546875 "/></g></g></g><g fill="#ffffff" fill-opacity="1"><g transform="translate(409.822198, 517.469483)"><g><path d="M 85.015625 -63.25 L 114.46875 -63.25 C 116.25 -63.25 117.472656 -62.859375 118.140625 -62.078125 C 118.804688 -61.296875 119.140625 -59.957031 119.140625 -58.0625 L 119.140625 -47.6875 C 119.140625 -40.664062 117.773438 -34.054688 115.046875 -27.859375 C 112.316406 -21.671875 108.492188 -16.257812 103.578125 -11.625 C 98.671875 -7 92.84375 -3.375 86.09375 -0.75 C 79.34375 1.863281 71.953125 3.171875 63.921875 3.171875 C 56.117188 3.171875 48.753906 1.945312 41.828125 -0.5 C 34.910156 -2.957031 28.859375 -6.441406 23.671875 -10.953125 C 18.484375 -15.472656 14.410156 -20.859375 11.453125 -27.109375 C 8.503906 -33.359375 7.03125 -40.21875 7.03125 -47.6875 L 7.03125 -123.828125 C 7.03125 -130.859375 8.503906 -137.410156 11.453125 -143.484375 C 14.410156 -149.566406 18.484375 -154.953125 23.671875 -159.640625 C 28.859375 -164.328125 34.910156 -167.976562 41.828125 -170.59375 C 48.753906 -173.21875 56.117188 -174.53125 63.921875 -174.53125 C 71.953125 -174.53125 79.34375 -173.21875 86.09375 -170.59375 C 92.84375 -167.976562 98.671875 -164.328125 103.578125 -159.640625 C 108.492188 -154.953125 112.316406 -149.566406 115.046875 -143.484375 C 117.773438 -137.410156 119.140625 -130.859375 119.140625 -123.828125 L 119.140625 -110.609375 C 119.140625 -108.492188 118.773438 -107.046875 118.046875 -106.265625 C 117.328125 -105.484375 116.132812 -105.09375 114.46875 -105.09375 L 86.34375 -105.09375 C 83.894531 -105.09375 82.222656 -105.484375 81.328125 -106.265625 C 80.429688 -107.046875 79.984375 -108.550781 79.984375 -110.78125 L 79.984375 -122.328125 C 79.984375 -126.117188 78.671875 -129.578125 76.046875 -132.703125 C 73.429688 -135.828125 69.722656 -137.390625 64.921875 -137.390625 C 60.460938 -137.390625 56.753906 -135.851562 53.796875 -132.78125 C 50.835938 -129.71875 49.359375 -126.34375 49.359375 -122.65625 L 49.359375 -48.859375 C 49.359375 -45.066406 50.835938 -41.632812 53.796875 -38.5625 C 56.753906 -35.5 60.460938 -33.96875 64.921875 -33.96875 C 69.722656 -33.96875 73.429688 -35.554688 76.046875 -38.734375 C 78.671875 -41.921875 79.984375 -45.351562 79.984375 -49.03125 L 79.984375 -57.40625 C 79.984375 -59.632812 80.347656 -61.164062 81.078125 -62 C 81.804688 -62.832031 83.117188 -63.25 85.015625 -63.25 Z M 85.015625 -63.25 "/></g></g></g><g fill="#ffffff" fill-opacity="1"><g transform="translate(552.146372, 517.469483)"><g><path d="M 73.125 0 L 62.59375 0 C 56.113281 0 50.054688 -0.78125 44.421875 -2.34375 C 38.796875 -3.90625 33.863281 -6.550781 29.625 -10.28125 C 25.382812 -14.019531 22.0625 -19.125 19.65625 -25.59375 C 17.257812 -32.070312 16.0625 -40.21875 16.0625 -50.03125 L 16.0625 -134.046875 L 6.1875 -134.046875 C 5.300781 -134.046875 4.242188 -134.570312 3.015625 -135.625 C 1.785156 -136.6875 1.171875 -138.222656 1.171875 -140.234375 L 1.171875 -165 C 1.171875 -167.226562 1.753906 -168.875 2.921875 -169.9375 C 4.097656 -171 5.1875 -171.53125 6.1875 -171.53125 L 16.0625 -171.53125 L 16.0625 -197.125 C 16.0625 -199.019531 16.394531 -200.5 17.0625 -201.5625 C 17.738281 -202.625 18.96875 -203.378906 20.75 -203.828125 L 52.046875 -213.03125 C 52.378906 -213.132812 52.878906 -213.1875 53.546875 -213.1875 C 56.890625 -213.1875 58.5625 -211.347656 58.5625 -207.671875 L 58.5625 -171.53125 L 75.46875 -171.53125 C 78.59375 -171.53125 80.15625 -169.460938 80.15625 -165.328125 L 80.15625 -140.234375 C 80.15625 -138.453125 79.679688 -136.972656 78.734375 -135.796875 C 77.785156 -134.628906 76.53125 -134.046875 74.96875 -134.046875 L 58.5625 -134.046875 L 58.5625 -52.546875 C 58.5625 -47.859375 59.675781 -44.257812 61.90625 -41.75 C 64.144531 -39.238281 68.332031 -37.984375 74.46875 -37.984375 L 77.3125 -37.984375 C 79.769531 -37.984375 81.21875 -37.257812 81.65625 -35.8125 C 82.101562 -34.363281 82.328125 -33.023438 82.328125 -31.796875 L 82.328125 -5.359375 C 82.328125 -4.242188 81.910156 -3.070312 81.078125 -1.84375 C 80.242188 -0.613281 77.59375 0 73.125 0 Z M 73.125 0 "/></g></g></g><g fill="#ffffff" fill-opacity="1"><g transform="translate(657.822613, 517.469483)"><g><path d="M 89.859375 -166.671875 L 89.859375 -142.578125 C 89.859375 -140.347656 89.050781 -138.726562 87.4375 -137.71875 C 85.820312 -136.71875 84.007812 -136.21875 82 -136.21875 L 73.46875 -136.21875 C 66.550781 -136.21875 60.972656 -133.898438 56.734375 -129.265625 C 52.492188 -124.640625 50.375 -118.3125 50.375 -110.28125 L 50.375 -7.859375 C 50.375 -4.960938 49.507812 -2.925781 47.78125 -1.75 C 46.050781 -0.582031 44.40625 0 42.84375 0 L 13.046875 0 C 11.597656 0 10.398438 -0.5 9.453125 -1.5 C 8.503906 -2.507812 8.03125 -3.960938 8.03125 -5.859375 L 8.03125 -115.96875 C 8.03125 -126.5625 9.785156 -135.566406 13.296875 -142.984375 C 16.816406 -150.410156 21.476562 -156.4375 27.28125 -161.0625 C 33.082031 -165.695312 39.441406 -169.097656 46.359375 -171.265625 C 53.273438 -173.441406 60.078125 -174.53125 66.765625 -174.53125 C 70.554688 -174.53125 73.929688 -174.445312 76.890625 -174.28125 C 79.847656 -174.113281 82.554688 -173.753906 85.015625 -173.203125 C 88.242188 -172.304688 89.859375 -170.128906 89.859375 -166.671875 Z M 89.859375 -166.671875 "/></g></g></g><g fill="#ffffff" fill-opacity="1"><g transform="translate(767.180424, 517.469483)"><g><path d="M 64.421875 -137.390625 C 59.847656 -137.390625 56.191406 -135.851562 53.453125 -132.78125 C 50.722656 -129.71875 49.359375 -126.34375 49.359375 -122.65625 L 49.359375 -48.859375 C 49.359375 -45.066406 50.753906 -41.632812 53.546875 -38.5625 C 56.335938 -35.5 59.960938 -33.96875 64.421875 -33.96875 C 68.992188 -33.96875 72.617188 -35.5 75.296875 -38.5625 C 77.984375 -41.632812 79.328125 -45.066406 79.328125 -48.859375 L 79.328125 -122.5 C 79.328125 -126.289062 77.984375 -129.71875 75.296875 -132.78125 C 72.617188 -135.851562 68.992188 -137.390625 64.421875 -137.390625 Z M 121.65625 -123.828125 L 121.65625 -47.6875 C 121.65625 -40.21875 120.175781 -33.359375 117.21875 -27.109375 C 114.269531 -20.859375 110.171875 -15.472656 104.921875 -10.953125 C 99.679688 -6.441406 93.570312 -2.957031 86.59375 -0.5 C 79.625 1.945312 72.179688 3.171875 64.265625 3.171875 C 56.335938 3.171875 48.914062 1.945312 42 -0.5 C 35.082031 -2.957031 29 -6.441406 23.75 -10.953125 C 18.507812 -15.472656 14.410156 -20.859375 11.453125 -27.109375 C 8.503906 -33.359375 7.03125 -40.21875 7.03125 -47.6875 L 7.03125 -123.828125 C 7.03125 -130.859375 8.503906 -137.441406 11.453125 -143.578125 C 14.410156 -149.710938 18.484375 -155.09375 23.671875 -159.71875 C 28.859375 -164.351562 34.910156 -167.976562 41.828125 -170.59375 C 48.753906 -173.21875 56.117188 -174.53125 63.921875 -174.53125 C 71.953125 -174.53125 79.453125 -173.300781 86.421875 -170.84375 C 93.398438 -168.394531 99.539062 -164.910156 104.84375 -160.390625 C 110.144531 -155.878906 114.269531 -150.523438 117.21875 -144.328125 C 120.175781 -138.140625 121.65625 -131.304688 121.65625 -123.828125 Z M 69.78125 -228.25 L 94.890625 -228.25 C 97.003906 -228.25 98.421875 -227.382812 99.140625 -225.65625 C 99.867188 -223.925781 99.675781 -222.113281 98.5625 -220.21875 L 82.828125 -192.78125 C 81.378906 -190.320312 80.066406 -188.757812 78.890625 -188.09375 C 77.722656 -187.425781 76.25 -187.09375 74.46875 -187.09375 L 54.390625 -187.09375 C 53.046875 -187.09375 51.867188 -187.785156 50.859375 -189.171875 C 49.859375 -190.566406 49.804688 -192.492188 50.703125 -194.953125 L 62.75 -222.40625 C 63.644531 -224.632812 64.535156 -226.164062 65.421875 -227 C 66.316406 -227.832031 67.769531 -228.25 69.78125 -228.25 Z M 69.78125 -228.25 "/></g></g></g><g fill="#ffffff" fill-opacity="1"><g transform="translate(913.6881, 517.469483)"><g><path d="M 119.484375 0 L 87.1875 0 C 85.738281 0 84.539062 -0.5 83.59375 -1.5 C 82.644531 -2.507812 82.171875 -3.90625 82.171875 -5.6875 L 82.171875 -123 C 81.941406 -126.90625 80.546875 -130.28125 77.984375 -133.125 C 75.421875 -135.96875 71.847656 -137.390625 67.265625 -137.390625 C 62.691406 -137.390625 59.09375 -135.9375 56.46875 -133.03125 C 53.851562 -130.132812 52.4375 -126.734375 52.21875 -122.828125 L 52.21875 -5.859375 C 52.21875 -1.953125 50.65625 0 47.53125 0 L 14.890625 0 C 13.441406 0 12.242188 -0.5 11.296875 -1.5 C 10.347656 -2.507812 9.875 -3.960938 9.875 -5.859375 L 9.875 -122.65625 C 9.875 -129.46875 11.238281 -135.96875 13.96875 -142.15625 C 16.707031 -148.351562 20.554688 -153.875 25.515625 -158.71875 C 30.484375 -163.570312 36.394531 -167.421875 43.25 -170.265625 C 50.113281 -173.109375 57.675781 -174.53125 65.9375 -174.53125 C 78.425781 -174.53125 89.019531 -172.1875 97.71875 -167.5 C 106.425781 -162.820312 113.066406 -156.578125 117.640625 -148.765625 C 122.210938 -140.953125 124.5 -132.304688 124.5 -122.828125 L 124.5 -5.6875 C 124.5 -3.90625 124.023438 -2.507812 123.078125 -1.5 C 122.128906 -0.5 120.929688 0 119.484375 0 Z M 119.484375 0 "/></g></g></g><g fill="#ffffff" fill-opacity="1"><g transform="translate(1066.05272, 517.469483)"><g><path d="M 9.875 -5.515625 L 9.875 -166.171875 C 9.875 -167.734375 10.457031 -168.988281 11.625 -169.9375 C 12.800781 -170.882812 14.113281 -171.359375 15.5625 -171.359375 L 46.1875 -171.359375 C 47.863281 -171.359375 49.34375 -170.851562 50.625 -169.84375 C 51.90625 -168.84375 52.546875 -167.617188 52.546875 -166.171875 L 52.546875 -5.515625 C 52.546875 -3.734375 51.957031 -2.367188 50.78125 -1.421875 C 49.613281 -0.472656 48.082031 0 46.1875 0 L 15.5625 0 C 11.769531 0 9.875 -1.835938 9.875 -5.515625 Z M 53.375 -215.375 L 53.375 -192.28125 C 53.375 -189.15625 52.617188 -187.003906 51.109375 -185.828125 C 49.609375 -184.660156 47.46875 -184.078125 44.6875 -184.078125 L 17.734375 -184.078125 C 14.835938 -184.078125 12.492188 -184.632812 10.703125 -185.75 C 8.921875 -186.863281 8.03125 -188.984375 8.03125 -192.109375 L 8.03125 -215.53125 C 8.03125 -218.101562 8.753906 -220.222656 10.203125 -221.890625 C 11.660156 -223.566406 14.117188 -224.40625 17.578125 -224.40625 L 44.6875 -224.40625 C 47.914062 -224.40625 50.171875 -223.625 51.453125 -222.0625 C 52.734375 -220.5 53.375 -218.269531 53.375 -215.375 Z M 53.375 -215.375 "/></g></g></g><g fill="#ffffff" fill-opacity="1"><g transform="translate(1146.292984, 517.469483)"><g><path d="M 85.015625 -63.25 L 114.46875 -63.25 C 116.25 -63.25 117.472656 -62.859375 118.140625 -62.078125 C 118.804688 -61.296875 119.140625 -59.957031 119.140625 -58.0625 L 119.140625 -47.6875 C 119.140625 -40.664062 117.773438 -34.054688 115.046875 -27.859375 C 112.316406 -21.671875 108.492188 -16.257812 103.578125 -11.625 C 98.671875 -7 92.84375 -3.375 86.09375 -0.75 C 79.34375 1.863281 71.953125 3.171875 63.921875 3.171875 C 56.117188 3.171875 48.753906 1.945312 41.828125 -0.5 C 34.910156 -2.957031 28.859375 -6.441406 23.671875 -10.953125 C 18.484375 -15.472656 14.410156 -20.859375 11.453125 -27.109375 C 8.503906 -33.359375 7.03125 -40.21875 7.03125 -47.6875 L 7.03125 -123.828125 C 7.03125 -130.859375 8.503906 -137.410156 11.453125 -143.484375 C 14.410156 -149.566406 18.484375 -154.953125 23.671875 -159.640625 C 28.859375 -164.328125 34.910156 -167.976562 41.828125 -170.59375 C 48.753906 -173.21875 56.117188 -174.53125 63.921875 -174.53125 C 71.953125 -174.53125 79.34375 -173.21875 86.09375 -170.59375 C 92.84375 -167.976562 98.671875 -164.328125 103.578125 -159.640625 C 108.492188 -154.953125 112.316406 -149.566406 115.046875 -143.484375 C 117.773438 -137.410156 119.140625 -130.859375 119.140625 -123.828125 L 119.140625 -110.609375 C 119.140625 -108.492188 118.773438 -107.046875 118.046875 -106.265625 C 117.328125 -105.484375 116.132812 -105.09375 114.46875 -105.09375 L 86.34375 -105.09375 C 83.894531 -105.09375 82.222656 -105.484375 81.328125 -106.265625 C 80.429688 -107.046875 79.984375 -108.550781 79.984375 -110.78125 L 79.984375 -122.328125 C 79.984375 -126.117188 78.671875 -129.578125 76.046875 -132.703125 C 73.429688 -135.828125 69.722656 -137.390625 64.921875 -137.390625 C 60.460938 -137.390625 56.753906 -135.851562 53.796875 -132.78125 C 50.835938 -129.71875 49.359375 -126.34375 49.359375 -122.65625 L 49.359375 -48.859375 C 49.359375 -45.066406 50.835938 -41.632812 53.796875 -38.5625 C 56.753906 -35.5 60.460938 -33.96875 64.921875 -33.96875 C 69.722656 -33.96875 73.429688 -35.554688 76.046875 -38.734375 C 78.671875 -41.921875 79.984375 -45.351562 79.984375 -49.03125 L 79.984375 -57.40625 C 79.984375 -59.632812 80.347656 -61.164062 81.078125 -62 C 81.804688 -62.832031 83.117188 -63.25 85.015625 -63.25 Z M 85.015625 -63.25 "/></g></g></g><g fill="#ffffff" fill-opacity="1"><g transform="translate(1288.617181, 517.469483)"><g><path d="M 79.15625 -49.703125 L 79.15625 -75.140625 L 71.28125 -75.140625 C 65.257812 -75.140625 60.546875 -74.191406 57.140625 -72.296875 C 53.742188 -70.398438 51.375 -67.890625 50.03125 -64.765625 C 48.695312 -61.640625 48.03125 -58.234375 48.03125 -54.546875 L 48.03125 -52.046875 C 48.03125 -47.804688 48.863281 -44.347656 50.53125 -41.671875 C 52.207031 -38.992188 54.300781 -37.039062 56.8125 -35.8125 C 59.320312 -34.582031 61.804688 -33.96875 64.265625 -33.96875 C 67.828125 -33.96875 71.195312 -35.222656 74.375 -37.734375 C 77.5625 -40.242188 79.15625 -44.234375 79.15625 -49.703125 Z M 59.40625 -105.421875 L 79.15625 -105.265625 L 79.15625 -117.140625 C 79.15625 -120.597656 78.425781 -124.082031 76.96875 -127.59375 C 75.519531 -131.113281 73.257812 -134.070312 70.1875 -136.46875 C 67.125 -138.863281 63.082031 -140.0625 58.0625 -140.0625 C 51.257812 -140.0625 45.515625 -139.140625 40.828125 -137.296875 C 36.140625 -135.460938 32.238281 -133.429688 29.125 -131.203125 C 28.34375 -130.753906 27.53125 -130.332031 26.6875 -129.9375 C 25.851562 -129.550781 25.046875 -129.359375 24.265625 -129.359375 C 22.921875 -129.359375 21.859375 -130.082031 21.078125 -131.53125 L 12.71875 -150.109375 C 11.9375 -151.671875 11.628906 -153.285156 11.796875 -154.953125 C 11.960938 -156.628906 13.441406 -158.304688 16.234375 -159.984375 C 20.359375 -162.546875 24.679688 -164.914062 29.203125 -167.09375 C 33.722656 -169.269531 38.851562 -171.050781 44.59375 -172.4375 C 50.34375 -173.832031 57.117188 -174.53125 64.921875 -174.53125 C 71.835938 -174.53125 78.644531 -173.382812 85.34375 -171.09375 C 92.039062 -168.8125 98.09375 -165.410156 103.5 -160.890625 C 108.914062 -156.378906 113.238281 -150.800781 116.46875 -144.15625 C 119.707031 -137.519531 121.328125 -129.851562 121.328125 -121.15625 L 121.328125 -48.1875 C 121.328125 -39.820312 119.929688 -32.679688 117.140625 -26.765625 C 114.347656 -20.859375 110.71875 -15.953125 106.25 -12.046875 C 101.789062 -8.140625 96.96875 -5.070312 91.78125 -2.84375 C 86.59375 -0.613281 81.515625 0.941406 76.546875 1.828125 C 71.585938 2.722656 67.320312 3.171875 63.75 3.171875 C 57.175781 3.171875 50.484375 2.140625 43.671875 0.078125 C 36.867188 -1.984375 30.59375 -5.1875 24.84375 -9.53125 C 19.101562 -13.882812 14.472656 -19.519531 10.953125 -26.4375 C 7.441406 -33.351562 5.6875 -41.664062 5.6875 -51.375 L 5.6875 -55.0625 C 5.6875 -63.976562 7.132812 -71.613281 10.03125 -77.96875 C 12.9375 -84.332031 16.898438 -89.550781 21.921875 -93.625 C 26.941406 -97.695312 32.6875 -100.679688 39.15625 -102.578125 C 45.625 -104.472656 52.375 -105.421875 59.40625 -105.421875 Z M 59.40625 -105.421875 "/></g></g></g></svg>